<svg version="1.1" id="Layer_1" xmlns="http://www.w3.org/2000/svg" xmlns:xlink="http://www.w3.org/1999/xlink" x="0px" y="0px"
	 width="100%" viewBox="0 0 323 310" enable-background="new 0 0 323 310" xml:space="preserve">
<path fill="#A0B865" opacity="1.000000" stroke="none" 
	d="
M1.000000,169.000000 
	C1.000000,160.312439 1.000000,151.624863 1.350993,142.246063 
	C2.129648,138.298462 2.577540,135.044617 2.981561,131.785339 
	C5.006361,115.451050 10.652427,100.175926 18.236578,85.827713 
	C28.808784,65.826508 43.294991,48.905163 61.361416,34.996494 
	C82.083366,19.043444 105.391121,9.222072 130.815903,4.014389 
	C136.510818,2.847917 142.270264,1.996475 148.000000,1.000000 
	C157.354233,1.000000 166.708450,1.000000 176.753937,1.350993 
	C184.417587,2.808184 191.416550,3.769919 198.357788,5.045674 
	C227.872696,10.470314 252.764923,25.030012 274.955719,44.565422 
	C286.425415,54.662663 296.097137,66.381035 303.388184,79.927078 
	C312.081970,96.079346 318.955353,112.895851 322.015564,131.095108 
	C322.737213,135.386627 323.341644,139.697845 324.000000,144.000000 
	C324.000000,150.354401 324.000000,156.708786 323.641907,163.768341 
	C323.336914,182.507706 319.165771,199.647217 311.885193,216.021164 
	C300.852112,240.834381 284.732483,261.774994 262.862946,277.985870 
	C240.500671,294.561981 215.928238,306.061157 187.895126,309.146088 
	C183.910339,309.584564 179.964081,310.373352 176.000000,311.000000 
	C165.312439,311.000000 154.624878,311.000000 143.256500,310.654266 
	C130.738388,307.719177 118.580986,306.100159 107.135208,302.324097 
	C87.611015,295.882843 69.997589,285.288849 54.569202,271.812347 
	C29.496788,249.911942 11.782615,223.175629 5.014128,190.013489 
	C3.588150,183.026932 2.333561,176.005417 1.000000,169.000000 
M262.523438,258.993805 
	C263.836060,258.006989 265.308899,257.175140 266.436401,256.009247 
	C277.136261,244.945389 286.620972,232.888458 293.839050,219.297897 
	C307.516327,193.545639 312.264221,166.066803 307.984100,137.196320 
	C305.110260,117.811798 298.363586,99.668449 288.259888,82.944595 
	C280.331299,69.821007 269.659882,58.923687 257.757355,49.296967 
	C245.285446,39.209721 231.882874,30.486349 216.713608,25.133101 
	C194.956284,17.454918 172.721298,13.567520 149.331482,15.753402 
	C130.324615,17.529676 112.598206,22.692354 95.594704,30.825012 
	C74.187889,41.063744 56.428055,56.024338 42.598988,75.148026 
	C23.771305,101.184097 14.250443,130.336594 15.951252,162.804092 
	C16.539885,174.040741 18.641575,184.851883 21.866186,195.671387 
	C28.564337,218.145584 40.350960,237.536545 56.701195,253.924088 
	C69.521309,266.773407 84.541183,276.754242 101.325745,284.289001 
	C120.737587,293.003235 141.015518,297.144653 161.993286,297.788635 
	C170.778839,298.058350 179.680252,296.290833 188.452164,294.947693 
	C216.557220,290.644287 240.818390,278.218933 262.523438,258.993805 
z"/>
<path fill="#FFFFFF" opacity="1.000000" stroke="none" 
	d="
M324.000000,143.531342 
	C323.341644,139.697845 322.737213,135.386627 322.015564,131.095108 
	C318.955353,112.895851 312.081970,96.079346 303.388184,79.927078 
	C296.097137,66.381035 286.425415,54.662663 274.955719,44.565422 
	C252.764923,25.030012 227.872696,10.470314 198.357788,5.045674 
	C191.416550,3.769919 184.417587,2.808184 177.222595,1.350993 
	C225.925980,1.000000 274.851959,1.000000 324.000000,1.000000 
	C324.000000,48.353996 324.000000,95.708336 324.000000,143.531342 
z"/>
<path fill="#FFFFFF" opacity="1.000000" stroke="none" 
	d="
M147.531342,1.000000 
	C142.270264,1.996475 136.510818,2.847917 130.815903,4.014389 
	C105.391121,9.222072 82.083366,19.043444 61.361416,34.996494 
	C43.294991,48.905163 28.808784,65.826508 18.236578,85.827713 
	C10.652427,100.175926 5.006361,115.451050 2.981561,131.785339 
	C2.577540,135.044617 2.129648,138.298462 1.350993,141.777405 
	C1.000000,95.071480 1.000000,48.142963 1.000000,1.000000 
	C49.687351,1.000000 98.375015,1.000000 147.531342,1.000000 
z"/>
<path fill="#FFFFFF" opacity="1.000000" stroke="none" 
	d="
M1.000000,169.468658 
	C2.333561,176.005417 3.588150,183.026932 5.014128,190.013489 
	C11.782615,223.175629 29.496788,249.911942 54.569202,271.812347 
	C69.997589,285.288849 87.611015,295.882843 107.135208,302.324097 
	C118.580986,306.100159 130.738388,307.719177 142.787842,310.654266 
	C95.739670,311.000000 48.479340,311.000000 1.000000,311.000000 
	C1.000000,263.979340 1.000000,216.958328 1.000000,169.468658 
z"/>
<path fill="#FFFFFF" opacity="1.000000" stroke="none" 
	d="
M176.468658,311.000000 
	C179.964081,310.373352 183.910339,309.584564 187.895126,309.146088 
	C215.928238,306.061157 240.500671,294.561981 262.862946,277.985870 
	C284.732483,261.774994 300.852112,240.834381 311.885193,216.021164 
	C319.165771,199.647217 323.336914,182.507706 323.641907,164.236740 
	C324.000000,212.927246 324.000000,261.854492 324.000000,311.000000 
	C274.979309,311.000000 225.958313,311.000000 176.468658,311.000000 
z"/>
<path fill="#FFFFFF" opacity="1.000000" stroke="none" 
	d="
M262.265686,259.243439 
	C240.818390,278.218933 216.557220,290.644287 188.452164,294.947693 
	C179.680252,296.290833 170.778839,298.058350 161.993286,297.788635 
	C141.015518,297.144653 120.737587,293.003235 101.325745,284.289001 
	C84.541183,276.754242 69.521309,266.773407 56.701195,253.924088 
	C40.350960,237.536545 28.564337,218.145584 21.866186,195.671387 
	C18.641575,184.851883 16.539885,174.040741 15.951252,162.804092 
	C14.250443,130.336594 23.771305,101.184097 42.598988,75.148026 
	C56.428055,56.024338 74.187889,41.063744 95.594704,30.825012 
	C112.598206,22.692354 130.324615,17.529676 149.331482,15.753402 
	C172.721298,13.567520 194.956284,17.454918 216.713608,25.133101 
	C231.882874,30.486349 245.285446,39.209721 257.757355,49.296967 
	C269.659882,58.923687 280.331299,69.821007 288.259888,82.944595 
	C298.363586,99.668449 305.110260,117.811798 307.984100,137.196320 
	C312.264221,166.066803 307.516327,193.545639 293.839050,219.297897 
	C286.620972,232.888458 277.136261,244.945389 266.436401,256.009247 
	C265.308899,257.175140 263.836060,258.006989 262.265686,259.243439 
M243.371689,186.901550 
	C238.124908,189.642807 232.680252,192.069229 227.684021,195.209183 
	C222.102234,198.717148 216.383026,201.057388 209.695160,201.140244 
	C208.324814,201.157242 206.816071,202.721527 205.669159,203.870163 
	C204.813217,204.727402 204.437256,206.063934 203.847565,207.187027 
	C204.863693,197.881561 202.852798,193.474991 194.854034,188.454056 
	C193.603058,187.668808 192.152908,187.191101 190.934525,186.365158 
	C166.923019,170.087677 141.841919,155.855072 114.515450,145.801147 
	C102.329109,141.317566 90.296745,138.489380 77.223999,142.733154 
	C65.400276,146.571442 53.191948,149.222534 41.160130,152.423111 
	C34.316891,154.243484 34.033707,155.078644 35.717037,162.462601 
	C38.583683,175.037186 43.263233,186.882126 49.005527,198.402206 
	C51.132717,202.669754 54.144993,203.687500 58.269638,202.836990 
	C68.109657,200.807983 77.655991,201.724075 86.726616,205.968811 
	C107.442421,215.663071 128.087082,225.509766 148.737244,235.343704 
	C157.631180,239.579147 166.698715,241.020691 176.407028,238.339752 
	C192.668671,233.849121 208.957977,229.433472 225.341629,225.418915 
	C235.765274,222.864761 246.265381,220.487549 254.951843,213.919662 
	C266.097351,205.492432 276.891846,196.593170 287.683319,187.709885 
	C291.368683,184.676193 292.213745,179.943375 290.579163,175.964203 
	C289.555603,173.472519 285.934082,170.674744 283.320526,170.509598 
	C278.601501,170.211349 273.322662,170.821518 269.069122,172.775391 
	C260.433441,176.742203 252.325470,181.857864 243.371689,186.901550 
M118.547813,83.000145 
	C116.784424,83.000145 115.021034,83.000145 113.029579,83.000145 
	C113.029579,84.918152 112.906982,86.093307 113.061981,87.230621 
	C113.238289,88.524193 113.816231,89.767433 113.955292,91.060966 
	C115.334991,103.895683 119.992790,115.485191 126.697021,126.447334 
	C134.212341,138.735733 145.056549,147.586899 156.527832,155.664536 
	C166.069061,162.383133 176.837357,165.575562 189.452545,163.444702 
	C187.258347,152.717331 179.490723,145.106293 175.416290,135.643494 
	C176.854553,136.582916 178.023193,137.705902 178.975266,138.989517 
	C183.085297,144.531006 187.040802,150.190460 191.277084,155.632156 
	C192.143295,156.744827 193.976242,157.104919 195.363571,157.811920 
	C195.905563,156.702576 196.795914,155.635696 196.937073,154.477509 
	C198.891342,138.442001 193.756821,124.411911 183.679733,112.324898 
	C167.057861,92.387703 144.457092,84.936798 118.547813,83.000145 
M228.643890,184.132233 
	C243.121506,178.316833 253.173492,167.029037 262.984436,155.684647 
	C272.766022,144.374222 276.154938,130.202377 278.899048,115.919823 
	C279.729095,111.599464 277.651123,109.423683 273.006134,110.061584 
	C266.835876,110.908958 260.654327,111.795364 254.562363,113.070038 
	C230.672592,118.068687 212.539703,130.788010 202.361313,153.410583 
	C198.159622,162.749268 196.091202,172.596161 199.900803,184.233994 
	C206.186981,176.804276 211.734543,170.247543 217.282120,163.690796 
	C217.609787,165.097839 217.236404,165.945602 216.767593,166.736832 
	C213.502670,172.247025 210.198090,177.733795 206.947296,183.252274 
	C205.107742,186.375061 206.203690,188.356674 209.668823,187.897675 
	C215.807846,187.084518 221.869797,185.689621 228.643890,184.132233 
M232.378616,79.851830 
	C214.334274,83.434341 203.103500,94.760651 197.408340,111.670708 
	C196.051666,115.698921 193.870819,120.774269 198.217545,125.192520 
	C199.789047,124.323593 201.183258,123.552704 202.614792,122.761169 
	C202.308350,125.093544 202.060211,126.982056 201.812073,128.870575 
	C203.987137,128.931000 206.194534,129.262192 208.331909,129.006943 
	C220.264740,127.581856 229.481232,121.205086 237.051392,112.359505 
	C245.582504,102.391083 250.187958,90.750023 250.848587,76.828636 
	C244.653076,77.732986 238.882675,78.575287 232.378616,79.851830 
z"/>
<path fill="#A0B865" opacity="1.000000" stroke="none" 
	d="
M243.685837,186.700775 
	C252.325470,181.857864 260.433441,176.742203 269.069122,172.775391 
	C273.322662,170.821518 278.601501,170.211349 283.320526,170.509598 
	C285.934082,170.674744 289.555603,173.472519 290.579163,175.964203 
	C292.213745,179.943375 291.368683,184.676193 287.683319,187.709885 
	C276.891846,196.593170 266.097351,205.492432 254.951843,213.919662 
	C246.265381,220.487549 235.765274,222.864761 225.341629,225.418915 
	C208.957977,229.433472 192.668671,233.849121 176.407028,238.339752 
	C166.698715,241.020691 157.631180,239.579147 148.737244,235.343704 
	C128.087082,225.509766 107.442421,215.663071 86.726616,205.968811 
	C77.655991,201.724075 68.109657,200.807983 58.269638,202.836990 
	C54.144993,203.687500 51.132717,202.669754 49.005527,198.402206 
	C43.263233,186.882126 38.583683,175.037186 35.717037,162.462601 
	C34.033707,155.078644 34.316891,154.243484 41.160130,152.423111 
	C53.191948,149.222534 65.400276,146.571442 77.223999,142.733154 
	C90.296745,138.489380 102.329109,141.317566 114.515450,145.801147 
	C141.841919,155.855072 166.923019,170.087677 190.934525,186.365158 
	C192.152908,187.191101 193.603058,187.668808 194.854034,188.454056 
	C202.852798,193.474991 204.863693,197.881561 203.847565,207.187027 
	C204.437256,206.063934 204.813217,204.727402 205.669159,203.870163 
	C206.816071,202.721527 208.324814,201.157242 209.695160,201.140244 
	C216.383026,201.057388 222.102234,198.717148 227.684021,195.209183 
	C232.680252,192.069229 238.124908,189.642807 243.685837,186.700775 
M167.636292,201.902496 
	C170.145187,203.136017 172.589935,204.528748 175.176056,205.570557 
	C180.888794,207.871902 186.539764,210.515656 192.468384,212.033966 
	C197.478195,213.316956 200.030289,211.714310 201.861969,208.299622 
	C190.303604,211.939056 189.166763,210.112335 183.436096,207.494583 
	C171.801590,202.179916 160.664413,195.777527 149.314774,189.837738 
	C145.452179,187.816284 141.567184,185.837646 137.692429,183.839447 
	C137.391495,184.448776 137.090561,185.058090 136.789627,185.667419 
	C146.859772,190.944946 156.929901,196.222488 167.636292,201.902496 
z"/>
<path fill="#A0B865" opacity="1.000000" stroke="none" 
	d="
M119.009186,83.000122 
	C144.457092,84.936798 167.057861,92.387703 183.679733,112.324898 
	C193.756821,124.411911 198.891342,138.442001 196.937073,154.477509 
	C196.795914,155.635696 195.905563,156.702576 195.363571,157.811920 
	C193.976242,157.104919 192.143295,156.744827 191.277084,155.632156 
	C187.040802,150.190460 183.085297,144.531006 178.975266,138.989517 
	C178.023193,137.705902 176.854553,136.582916 175.416290,135.643494 
	C179.490723,145.106293 187.258347,152.717331 189.452545,163.444702 
	C176.837357,165.575562 166.069061,162.383133 156.527832,155.664536 
	C145.056549,147.586899 134.212341,138.735733 126.697021,126.447334 
	C119.992790,115.485191 115.334991,103.895683 113.955292,91.060966 
	C113.816231,89.767433 113.238289,88.524193 113.061981,87.230621 
	C112.906982,86.093307 113.029579,84.918152 113.029579,83.000145 
	C115.021034,83.000145 116.784424,83.000145 119.009186,83.000122 
M172.792526,132.638596 
	C172.642166,132.944366 172.491821,133.250137 172.341461,133.555908 
	C172.597443,133.614914 172.853409,133.673935 173.109390,133.732956 
	C173.150452,133.506393 173.191513,133.279831 172.792526,132.638596 
z"/>
<path fill="#A0B865" opacity="1.000000" stroke="none" 
	d="
M228.303955,184.335190 
	C221.869797,185.689621 215.807846,187.084518 209.668823,187.897675 
	C206.203690,188.356674 205.107742,186.375061 206.947296,183.252274 
	C210.198090,177.733795 213.502670,172.247025 216.767593,166.736832 
	C217.236404,165.945602 217.609787,165.097839 217.282120,163.690796 
	C211.734543,170.247543 206.186981,176.804276 199.900803,184.233994 
	C196.091202,172.596161 198.159622,162.749268 202.361313,153.410583 
	C212.539703,130.788010 230.672592,118.068687 254.562363,113.070038 
	C260.654327,111.795364 266.835876,110.908958 273.006134,110.061584 
	C277.651123,109.423683 279.729095,111.599464 278.899048,115.919823 
	C276.154938,130.202377 272.766022,144.374222 262.984436,155.684647 
	C253.173492,167.029037 243.121506,178.316833 228.303955,184.335190 
M218.815033,161.969269 
	C218.820221,162.204330 218.825409,162.439377 218.830597,162.674438 
	C219.093521,162.647202 219.356445,162.619949 219.619385,162.592712 
	C219.505035,162.248749 219.390686,161.904785 218.815033,161.969269 
z"/>
<path fill="#A0B865" opacity="1.000000" stroke="none" 
	d="
M232.745453,79.634705 
	C238.882675,78.575287 244.653076,77.732986 250.848587,76.828636 
	C250.187958,90.750023 245.582504,102.391083 237.051392,112.359505 
	C229.481232,121.205086 220.264740,127.581856 208.331909,129.006943 
	C206.194534,129.262192 203.987137,128.931000 201.812073,128.870575 
	C202.060211,126.982056 202.308350,125.093544 202.614792,122.761169 
	C201.183258,123.552704 199.789047,124.323593 198.217545,125.192520 
	C193.870819,120.774269 196.051666,115.698921 197.408340,111.670708 
	C203.103500,94.760651 214.334274,83.434341 232.745453,79.634705 
M204.854126,121.122665 
	C204.959839,120.593651 205.065552,120.064644 205.171265,119.535629 
	C204.908630,119.504738 204.645981,119.473846 204.383347,119.442955 
	C204.383347,120.168854 204.383347,120.894753 204.854126,121.122665 
M206.203659,118.837234 
	C206.364548,118.513229 206.525452,118.189232 206.686356,117.865242 
	C206.332367,118.112480 205.978378,118.359718 206.203659,118.837234 
z"/>
<path fill="#FFFFFF" opacity="1.000000" stroke="none" 
	d="
M167.318161,201.701263 
	C156.929901,196.222488 146.859772,190.944946 136.789627,185.667419 
	C137.090561,185.058090 137.391495,184.448776 137.692429,183.839447 
	C141.567184,185.837646 145.452179,187.816284 149.314774,189.837738 
	C160.664413,195.777527 171.801590,202.179916 183.436096,207.494583 
	C189.166763,210.112335 190.303604,211.939056 201.861969,208.299622 
	C200.030289,211.714310 197.478195,213.316956 192.468384,212.033966 
	C186.539764,210.515656 180.888794,207.871902 175.176056,205.570557 
	C172.589935,204.528748 170.145187,203.136017 167.318161,201.701263 
z"/>
<path fill="#FFFFFF" opacity="1.000000" stroke="none" 
	d="
M173.012543,132.845932 
	C173.191513,133.279831 173.150452,133.506393 173.109390,133.732956 
	C172.853409,133.673935 172.597443,133.614914 172.341461,133.555908 
	C172.491821,133.250137 172.642166,132.944366 173.012543,132.845932 
z"/>
<path fill="#FFFFFF" opacity="1.000000" stroke="none" 
	d="
M219.045685,161.765045 
	C219.390686,161.904785 219.505035,162.248749 219.619385,162.592712 
	C219.356445,162.619949 219.093521,162.647202 218.830597,162.674438 
	C218.825409,162.439377 218.820221,162.204330 219.045685,161.765045 
z"/>
<path fill="#FFFFFF" opacity="1.000000" stroke="none" 
	d="
M204.618744,121.371658 
	C204.383347,120.894753 204.383347,120.168854 204.383347,119.442955 
	C204.645981,119.473846 204.908630,119.504738 205.171265,119.535629 
	C205.065552,120.064644 204.959839,120.593651 204.618744,121.371658 
z"/>
<path fill="#FFFFFF" opacity="1.000000" stroke="none" 
	d="
M205.914017,118.722092 
	C205.978378,118.359718 206.332367,118.112480 206.686356,117.865234 
	C206.525452,118.189232 206.364548,118.513229 205.914017,118.722092 
z"/>
</svg>