<svg version="1.1" id="Layer_1" xmlns="http://www.w3.org/2000/svg" xmlns:xlink="http://www.w3.org/1999/xlink" x="0px" y="0px"
	 width="100%" viewBox="0 0 1350 1117" enable-background="new 0 0 1350 1117" xml:space="preserve">
<path fill="#FFFFFF" opacity="1.000000" stroke="none" 
	d="
M906.000000,1118.000000 
	C604.000000,1118.000000 302.500000,1118.000000 1.000000,1118.000000 
	C1.000000,745.666687 1.000000,373.333344 1.000000,1.000000 
	C451.000000,1.000000 901.000000,1.000000 1351.000000,1.000000 
	C1351.000000,373.333344 1351.000000,745.666687 1351.000000,1118.000000 
	C1202.833374,1118.000000 1054.666626,1118.000000 906.000000,1118.000000 
M1061.627197,271.597046 
	C1061.627197,271.597046 1061.534790,271.616394 1060.996948,271.647491 
	C1060.345215,271.394104 1059.693359,271.140717 1059.008789,270.092560 
	C1055.438477,254.158310 1046.027344,242.212128 1032.974487,233.057602 
	C1017.953186,222.522507 1000.927368,216.695831 983.087341,213.006058 
	C967.948730,209.875000 953.257202,208.870468 938.098206,214.699692 
	C904.445557,227.640472 870.136047,238.881882 836.548401,251.980484 
	C810.723267,262.051880 785.388611,273.462433 760.217041,285.101990 
	C741.082886,293.949738 722.390259,303.798462 703.789001,313.740295 
	C683.501343,324.583466 663.209351,335.491333 643.532898,347.386139 
	C620.647888,361.220520 598.312744,375.979980 575.966187,390.683380 
	C563.356140,398.980438 550.944885,407.630280 538.902710,416.728210 
	C518.971069,431.786713 499.265930,447.155273 479.743744,462.741943 
	C467.001953,472.915009 454.657410,483.594635 442.316589,494.257568 
	C434.429504,501.072357 426.743134,508.133514 419.196930,515.325684 
	C403.702118,530.093750 388.361969,545.024170 372.368988,560.177917 
	C371.874329,561.105286 371.379669,562.032715 370.289795,563.245544 
	C365.512573,568.126282 360.735382,573.007019 355.369019,578.177917 
	C354.874359,579.105347 354.379700,580.032715 353.290527,581.244934 
	C350.513092,584.125854 347.735626,587.006775 344.368988,590.177917 
	C343.874329,591.105286 343.379669,592.032715 342.305817,593.231689 
	C340.856598,594.783691 339.407410,596.335754 337.368988,598.177917 
	C336.874329,599.105286 336.379669,600.032715 335.305817,601.231689 
	C333.856628,602.783752 332.407410,604.335754 330.369019,606.177917 
	C329.874359,607.105347 329.379700,608.032715 328.316803,609.221497 
	C327.197266,610.443604 326.077728,611.665649 324.369019,613.177917 
	C323.874359,614.105286 323.379700,615.032715 322.334229,616.205139 
	C321.542206,617.099304 320.750183,617.993530 319.369019,619.177917 
	C318.874359,620.105347 318.379700,621.032715 317.365997,622.176025 
	C316.896729,622.746582 316.427429,623.317139 315.368988,624.177917 
	C314.874329,625.105286 314.379669,626.032715 313.366028,627.176025 
	C312.896759,627.746582 312.427460,628.317200 311.368988,629.177917 
	C310.874329,630.105286 310.379669,631.032715 309.366028,632.176025 
	C308.896729,632.746582 308.427460,633.317200 307.369019,634.177917 
	C306.874359,635.105347 306.379700,636.032715 305.445404,637.117615 
	C305.167938,637.301514 305.005554,637.558228 304.368988,638.177917 
	C303.874329,639.105286 303.379669,640.032715 302.445404,641.117615 
	C302.167938,641.301514 302.005554,641.558228 301.368958,642.177917 
	C300.874298,643.105286 300.379639,644.032654 299.445404,645.117554 
	C299.167938,645.301514 299.005554,645.558228 298.319550,646.222717 
	C297.565918,647.480286 296.557373,648.651917 296.099579,650.009277 
	C292.862335,659.607361 289.675476,669.223450 286.589233,678.871155 
	C276.143677,711.524170 267.931030,744.670898 266.072998,779.050049 
	C265.296722,793.412842 265.529755,807.830139 265.552917,822.915344 
	C265.757111,823.611633 265.961304,824.307983 266.037537,825.858459 
	C266.340485,828.272339 266.643433,830.686218 266.988098,833.970642 
	C267.004425,835.470032 266.792511,837.013367 267.071716,838.462097 
	C270.617889,856.863708 275.583954,874.737854 284.646545,891.379700 
	C297.820099,915.570679 316.422791,934.223938 340.788666,946.791443 
	C353.027893,953.104309 364.919342,959.876038 376.595947,967.147949 
	C388.182861,974.364075 398.458984,984.143799 412.732178,986.395142 
	C416.280975,986.954956 419.756622,987.962646 423.290894,988.632568 
	C441.633636,992.109192 459.918243,995.963806 478.352264,998.866455 
	C494.892456,1001.470947 511.570801,1003.312866 528.242004,1004.939392 
	C545.634888,1006.636475 563.080872,1008.551453 580.524109,1008.775940 
	C601.891785,1009.050964 623.317505,1008.227905 644.648804,1006.825500 
	C661.341919,1005.728088 677.945374,1003.148071 694.559998,1001.005005 
	C718.044556,997.975830 740.816040,991.796570 763.194702,984.299377 
	C790.037781,975.306580 815.704651,963.704041 840.063477,949.097656 
	C864.756042,934.291260 887.328796,916.827637 908.234497,897.155151 
	C914.627930,891.138794 920.571106,884.610657 926.388428,878.023560 
	C934.353516,869.004517 942.690979,860.194397 949.628052,850.414551 
	C960.719971,834.777039 971.253662,818.696045 981.192688,802.299011 
	C998.458313,773.814697 1011.729309,743.382629 1023.033691,712.098083 
	C1035.299561,678.152710 1044.944092,643.440125 1051.791626,608.019348 
	C1056.083008,585.821106 1059.623657,563.461609 1062.866577,541.082520 
	C1065.129028,525.468628 1066.643799,509.724945 1067.895508,493.991730 
	C1069.284302,476.533875 1070.786011,459.024536 1070.843140,441.533051 
	C1070.982910,398.700989 1072.325317,355.824249 1068.048828,313.074127 
	C1067.063477,303.225128 1066.762085,293.309387 1065.942017,283.441284 
	C1065.621826,279.589752 1064.739990,275.784943 1063.995361,271.311523 
	C1063.226807,271.383118 1062.458374,271.454712 1061.627197,271.597046 
z"/>
<path fill="#A0B865" opacity="1.000000" stroke="none" 
	d="
M266.165497,825.004272 
	C265.961304,824.307983 265.757111,823.611633 265.846069,822.348389 
	C266.426025,820.361267 266.925323,818.947327 266.966675,817.520081 
	C267.355377,804.095520 267.236938,790.640015 268.129395,777.251038 
	C268.896057,765.748962 270.224670,754.218201 272.300964,742.882568 
	C277.314209,715.512268 284.729309,688.737854 293.728271,662.403015 
	C295.595001,656.940125 297.221191,651.394958 298.958252,645.887756 
	C299.005554,645.558228 299.167938,645.301514 300.027679,645.000610 
	C301.059357,643.885071 301.508759,642.886414 301.958191,641.887756 
	C302.005554,641.558228 302.167938,641.301514 303.027679,641.000671 
	C304.059357,639.885071 304.508759,638.886414 304.958191,637.887756 
	C305.005554,637.558228 305.167938,637.301514 306.027679,637.000671 
	C307.059357,635.885071 307.508759,634.886414 307.958191,633.887756 
	C308.427460,633.317200 308.896729,632.746582 309.988007,632.029907 
	C311.059387,630.885071 311.508820,629.886414 311.958191,628.887756 
	C312.427460,628.317200 312.896759,627.746582 313.987976,627.029907 
	C315.059326,625.885071 315.508728,624.886414 315.958160,623.887756 
	C316.427429,623.317139 316.896729,622.746582 317.987976,622.029907 
	C319.059357,620.885071 319.508789,619.886414 319.958191,618.887756 
	C320.750183,617.993530 321.542206,617.099304 322.972076,616.044434 
	C324.059357,614.885071 324.508759,613.886414 324.958191,612.887756 
	C326.077728,611.665649 327.197266,610.443604 328.963379,609.052612 
	C330.059357,607.885071 330.508789,606.886414 330.958191,605.887756 
	C332.407410,604.335754 333.856628,602.783752 335.957886,601.057739 
	C337.059357,599.885071 337.508789,598.886414 337.958191,597.887756 
	C339.407410,596.335754 340.856598,594.783691 342.957886,593.057739 
	C344.059387,591.885071 344.508789,590.886414 344.958191,589.887756 
	C347.735626,587.006775 350.513092,584.125854 353.950226,581.064331 
	C355.059326,579.885071 355.508759,578.886414 355.958191,577.887756 
	C360.735382,573.007019 365.512573,568.126282 370.949890,563.064636 
	C372.059387,561.885071 372.508820,560.886414 372.958191,559.887756 
	C388.361969,545.024170 403.702118,530.093750 419.196930,515.325684 
	C426.743134,508.133514 434.429504,501.072357 442.316589,494.257568 
	C454.657410,483.594635 467.001953,472.915009 479.743744,462.741943 
	C499.265930,447.155273 518.971069,431.786713 538.902710,416.728210 
	C550.944885,407.630280 563.356140,398.980438 575.966187,390.683380 
	C598.312744,375.979980 620.647888,361.220520 643.532898,347.386139 
	C663.209351,335.491333 683.501343,324.583466 703.789001,313.740295 
	C722.390259,303.798462 741.082886,293.949738 760.217041,285.101990 
	C785.388611,273.462433 810.723267,262.051880 836.548401,251.980484 
	C870.136047,238.881882 904.445557,227.640472 938.098206,214.699692 
	C953.257202,208.870468 967.948730,209.875000 983.087341,213.006058 
	C1000.927368,216.695831 1017.953186,222.522507 1032.974487,233.057602 
	C1046.027344,242.212128 1055.438477,254.158310 1059.019287,270.866699 
	C1059.518433,272.368744 1060.007202,273.096649 1060.495972,273.824585 
	C1060.842163,273.088501 1061.188477,272.352448 1061.534790,271.616394 
	C1061.534790,271.616394 1061.627197,271.597046 1062.046143,271.724274 
	C1063.014771,271.887268 1063.564331,271.923065 1064.113892,271.958832 
	C1064.739990,275.784943 1065.621826,279.589752 1065.942017,283.441284 
	C1066.762085,293.309387 1067.063477,303.225128 1068.048828,313.074127 
	C1072.325317,355.824249 1070.982910,398.700989 1070.843140,441.533051 
	C1070.786011,459.024536 1069.284302,476.533875 1067.895508,493.991730 
	C1066.643799,509.724945 1065.129028,525.468628 1062.866577,541.082520 
	C1059.623657,563.461609 1056.083008,585.821106 1051.791626,608.019348 
	C1044.944092,643.440125 1035.299561,678.152710 1023.033691,712.098083 
	C1011.729309,743.382629 998.458313,773.814697 981.192688,802.299011 
	C971.253662,818.696045 960.719971,834.777039 949.628052,850.414551 
	C942.690979,860.194397 934.353516,869.004517 926.388428,878.023560 
	C920.571106,884.610657 914.627930,891.138794 908.234497,897.155151 
	C887.328796,916.827637 864.756042,934.291260 840.063477,949.097656 
	C815.704651,963.704041 790.037781,975.306580 763.194702,984.299377 
	C740.816040,991.796570 718.044556,997.975830 694.559998,1001.005005 
	C677.945374,1003.148071 661.341919,1005.728088 644.648804,1006.825500 
	C623.317505,1008.227905 601.891785,1009.050964 580.524109,1008.775940 
	C563.080872,1008.551453 545.634888,1006.636475 528.242004,1004.939392 
	C511.570801,1003.312866 494.892456,1001.470947 478.352264,998.866455 
	C459.918243,995.963806 441.633636,992.109192 423.290894,988.632568 
	C419.756622,987.962646 416.280975,986.954956 412.732178,986.395142 
	C398.458984,984.143799 388.182861,974.364075 376.595947,967.147949 
	C364.919342,959.876038 353.027893,953.104309 340.788666,946.791443 
	C316.422791,934.223938 297.820099,915.570679 284.646545,891.379700 
	C275.583954,874.737854 270.617889,856.863708 267.071716,838.462097 
	C266.792511,837.013367 267.004425,835.470032 267.127625,833.169556 
	C267.763031,829.784668 269.605713,826.999329 266.165497,825.004272 
M960.444702,215.000046 
	C958.165955,215.244278 955.787964,215.152054 953.625183,215.789688 
	C943.097046,218.893677 932.453491,221.723007 922.167908,225.510925 
	C890.946106,237.009186 859.694885,248.464218 828.797363,260.793854 
	C806.548035,269.672455 784.481140,279.180237 762.988953,289.742310 
	C733.446777,304.260498 704.198608,319.454590 675.436768,335.459412 
	C651.211182,348.939972 627.580078,363.552368 604.185852,378.449036 
	C568.430542,401.216888 533.905457,425.783051 500.983246,452.523743 
	C481.816772,468.091461 462.682159,483.710205 443.906891,499.743561 
	C431.578430,510.271576 419.580475,521.239258 408.034790,532.619080 
	C390.144043,550.252808 372.287384,567.967590 355.309875,586.467957 
	C339.607391,603.578979 324.924408,621.639832 310.131042,639.561829 
	C305.906830,644.679443 301.790833,650.369263 299.496399,656.497375 
	C294.562347,669.675537 290.721313,683.271912 286.654724,696.763977 
	C278.013641,725.433289 272.033417,754.727234 270.312378,784.570984 
	C269.315796,801.852051 270.325958,819.432312 272.337708,836.655396 
	C274.668884,856.613037 281.154449,875.604431 291.525543,893.066650 
	C299.698883,906.828491 309.870361,918.915710 322.503174,928.695129 
	C334.613434,938.069946 347.813965,945.715515 362.251465,951.077759 
	C380.841156,957.982117 399.900787,963.055603 419.825287,962.838806 
	C433.153564,962.693848 446.498901,961.336853 459.776764,959.949463 
	C482.671082,957.557190 504.850494,951.714417 526.834839,945.097961 
	C565.747742,933.386414 602.428284,916.555847 637.266113,895.822876 
	C671.817261,875.260620 703.936768,851.215027 733.873230,824.406189 
	C746.702820,812.917053 758.636230,800.381958 770.490295,787.861511 
	C782.419312,775.262024 793.986877,762.298035 805.262817,749.109009 
	C815.738403,736.856140 826.051819,724.416992 835.677246,711.494324 
	C857.936279,681.610657 879.621521,651.278931 898.386902,619.044067 
	C916.981506,587.102722 935.477783,555.077332 952.926575,522.504517 
	C966.451843,497.255920 978.386047,471.150269 990.843384,445.336700 
	C995.768677,435.130615 1000.389465,424.766052 1004.807434,414.329102 
	C1012.989685,394.999115 1021.163025,375.658783 1028.892944,356.145630 
	C1037.887451,333.439819 1046.465576,310.567688 1055.034912,287.696686 
	C1055.977539,285.180695 1056.248047,282.114258 1055.858643,279.444916 
	C1052.691528,257.742920 1040.216675,242.656784 1021.519958,232.222137 
	C1002.828247,221.790329 982.424377,217.224304 960.444702,215.000046 
z"/>
<path fill="#A0B865" opacity="1.000000" stroke="none" 
	d="
M298.638916,646.055237 
	C297.221191,651.394958 295.595001,656.940125 293.728271,662.403015 
	C284.729309,688.737854 277.314209,715.512268 272.300964,742.882568 
	C270.224670,754.218201 268.896057,765.748962 268.129395,777.251038 
	C267.236938,790.640015 267.355377,804.095520 266.966675,817.520081 
	C266.925323,818.947327 266.426025,820.361267 265.721558,822.002014 
	C265.529755,807.830139 265.296722,793.412842 266.072998,779.050049 
	C267.931030,744.670898 276.143677,711.524170 286.589233,678.871155 
	C289.675476,669.223450 292.862335,659.607361 296.099579,650.009277 
	C296.557373,648.651917 297.565918,647.480286 298.638916,646.055237 
z"/>
<path fill="#A0B865" opacity="1.000000" stroke="none" 
	d="
M266.101501,825.431396 
	C269.605713,826.999329 267.763031,829.784668 267.106781,832.734314 
	C266.643433,830.686218 266.340485,828.272339 266.101501,825.431396 
z"/>
<path fill="#A0B865" opacity="1.000000" stroke="none" 
	d="
M1061.265869,271.631958 
	C1061.188477,272.352448 1060.842163,273.088501 1060.495972,273.824585 
	C1060.007202,273.096649 1059.518433,272.368744 1059.035645,271.264099 
	C1059.693359,271.140717 1060.345215,271.394104 1061.265869,271.631958 
z"/>
<path fill="#A0B865" opacity="1.000000" stroke="none" 
	d="
M344.663574,590.032837 
	C344.508789,590.886414 344.059387,591.885071 343.247498,592.921875 
	C343.379669,592.032715 343.874329,591.105286 344.663574,590.032837 
z"/>
<path fill="#A0B865" opacity="1.000000" stroke="none" 
	d="
M337.663574,598.032837 
	C337.508789,598.886414 337.059357,599.885071 336.247498,600.921875 
	C336.379669,600.032715 336.874329,599.105286 337.663574,598.032837 
z"/>
<path fill="#A0B865" opacity="1.000000" stroke="none" 
	d="
M330.663605,606.032837 
	C330.508789,606.886414 330.059357,607.885071 329.247498,608.921875 
	C329.379700,608.032715 329.874359,607.105347 330.663605,606.032837 
z"/>
<path fill="#A0B865" opacity="1.000000" stroke="none" 
	d="
M324.663574,613.032837 
	C324.508759,613.886414 324.059357,614.885071 323.247498,615.921875 
	C323.379700,615.032715 323.874359,614.105286 324.663574,613.032837 
z"/>
<path fill="#A0B865" opacity="1.000000" stroke="none" 
	d="
M319.663605,619.032837 
	C319.508789,619.886414 319.059357,620.885071 318.247498,621.921875 
	C318.379700,621.032715 318.874359,620.105347 319.663605,619.032837 
z"/>
<path fill="#A0B865" opacity="1.000000" stroke="none" 
	d="
M315.663574,624.032837 
	C315.508728,624.886414 315.059326,625.885071 314.247467,626.921875 
	C314.379669,626.032715 314.874329,625.105286 315.663574,624.032837 
z"/>
<path fill="#A0B865" opacity="1.000000" stroke="none" 
	d="
M311.663605,629.032837 
	C311.508820,629.886414 311.059387,630.885071 310.247498,631.921875 
	C310.379669,631.032715 310.874329,630.105286 311.663605,629.032837 
z"/>
<path fill="#A0B865" opacity="1.000000" stroke="none" 
	d="
M307.663605,634.032837 
	C307.508759,634.886414 307.059357,635.885071 306.247498,636.921875 
	C306.379700,636.032715 306.874359,635.105347 307.663605,634.032837 
z"/>
<path fill="#A0B865" opacity="1.000000" stroke="none" 
	d="
M304.663574,638.032837 
	C304.508759,638.886414 304.059357,639.885071 303.247498,640.921875 
	C303.379669,640.032715 303.874329,639.105286 304.663574,638.032837 
z"/>
<path fill="#A0B865" opacity="1.000000" stroke="none" 
	d="
M301.663574,642.032837 
	C301.508759,642.886414 301.059357,643.885071 300.247467,644.921875 
	C300.379639,644.032654 300.874298,643.105286 301.663574,642.032837 
z"/>
<path fill="#A0B865" opacity="1.000000" stroke="none" 
	d="
M355.663574,578.032837 
	C355.508759,578.886414 355.059326,579.885071 354.247498,580.921875 
	C354.379700,580.032715 354.874359,579.105347 355.663574,578.032837 
z"/>
<path fill="#A0B865" opacity="1.000000" stroke="none" 
	d="
M372.663605,560.032837 
	C372.508820,560.886414 372.059387,561.885071 371.247498,562.921875 
	C371.379669,562.032715 371.874329,561.105286 372.663605,560.032837 
z"/>
<path fill="#A0B865" opacity="1.000000" stroke="none" 
	d="
M1064.054688,271.635193 
	C1063.564331,271.923065 1063.014771,271.887268 1062.077515,271.688904 
	C1062.458374,271.454712 1063.226807,271.383118 1064.054688,271.635193 
z"/>
<path fill="#FFFFFF" opacity="1.000000" stroke="none" 
	d="
M960.905273,215.000244 
	C982.424377,217.224304 1002.828247,221.790329 1021.519958,232.222137 
	C1040.216675,242.656784 1052.691528,257.742920 1055.858643,279.444916 
	C1056.248047,282.114258 1055.977539,285.180695 1055.034912,287.696686 
	C1046.465576,310.567688 1037.887451,333.439819 1028.892944,356.145630 
	C1021.163025,375.658783 1012.989685,394.999115 1004.807434,414.329102 
	C1000.389465,424.766052 995.768677,435.130615 990.843384,445.336700 
	C978.386047,471.150269 966.451843,497.255920 952.926575,522.504517 
	C935.477783,555.077332 916.981506,587.102722 898.386902,619.044067 
	C879.621521,651.278931 857.936279,681.610657 835.677246,711.494324 
	C826.051819,724.416992 815.738403,736.856140 805.262817,749.109009 
	C793.986877,762.298035 782.419312,775.262024 770.490295,787.861511 
	C758.636230,800.381958 746.702820,812.917053 733.873230,824.406189 
	C703.936768,851.215027 671.817261,875.260620 637.266113,895.822876 
	C602.428284,916.555847 565.747742,933.386414 526.834839,945.097961 
	C504.850494,951.714417 482.671082,957.557190 459.776764,959.949463 
	C446.498901,961.336853 433.153564,962.693848 419.825287,962.838806 
	C399.900787,963.055603 380.841156,957.982117 362.251465,951.077759 
	C347.813965,945.715515 334.613434,938.069946 322.503174,928.695129 
	C309.870361,918.915710 299.698883,906.828491 291.525543,893.066650 
	C281.154449,875.604431 274.668884,856.613037 272.337708,836.655396 
	C270.325958,819.432312 269.315796,801.852051 270.312378,784.570984 
	C272.033417,754.727234 278.013641,725.433289 286.654724,696.763977 
	C290.721313,683.271912 294.562347,669.675537 299.496399,656.497375 
	C301.790833,650.369263 305.906830,644.679443 310.131042,639.561829 
	C324.924408,621.639832 339.607391,603.578979 355.309875,586.467957 
	C372.287384,567.967590 390.144043,550.252808 408.034790,532.619080 
	C419.580475,521.239258 431.578430,510.271576 443.906891,499.743561 
	C462.682159,483.710205 481.816772,468.091461 500.983246,452.523743 
	C533.905457,425.783051 568.430542,401.216888 604.185852,378.449036 
	C627.580078,363.552368 651.211182,348.939972 675.436768,335.459412 
	C704.198608,319.454590 733.446777,304.260498 762.988953,289.742310 
	C784.481140,279.180237 806.548035,269.672455 828.797363,260.793854 
	C859.694885,248.464218 890.946106,237.009186 922.167908,225.510925 
	C932.453491,221.723007 943.097046,218.893677 953.625183,215.789688 
	C955.787964,215.152054 958.165955,215.244278 960.905273,215.000244 
M393.879456,675.208740 
	C392.919617,684.361572 391.319885,693.504578 391.178009,702.670044 
	C391.033051,712.036560 391.732391,721.513062 393.120056,730.782959 
	C395.031464,743.551514 397.056091,756.423035 400.596039,768.803284 
	C408.305786,795.766663 421.671082,820.006897 438.741791,842.220825 
	C443.366089,848.238281 448.728149,851.779846 457.023865,851.186035 
	C467.705017,850.421448 478.482300,851.000000 488.158936,851.000000 
	C488.337677,850.919189 487.378326,851.508057 486.335876,851.801514 
	C456.597504,860.173889 426.464203,865.877075 395.387421,864.965576 
	C392.061493,864.868042 389.815033,865.503174 390.244843,869.664673 
	C391.247894,869.778748 392.210358,869.952209 393.178009,869.989014 
	C413.902771,870.775818 434.484039,868.987366 454.709412,864.760193 
	C469.403870,861.689087 483.953796,857.584595 498.209198,852.858154 
	C510.630981,848.739685 522.402649,842.697021 534.729004,838.244812 
	C550.461792,832.562195 565.079895,824.842224 578.883423,815.573914 
	C600.213501,801.251953 619.905518,784.926514 636.320740,765.057190 
	C649.826416,748.709656 663.424377,732.364563 675.768433,715.148682 
	C694.097778,689.585327 709.656982,662.225647 721.774353,633.180237 
	C731.927856,608.841980 740.599304,583.887634 750.104797,559.274719 
	C751.676208,555.205872 750.718567,553.528259 747.025330,553.340210 
	C739.927979,573.023499 732.887756,592.548218 725.527832,612.959656 
	C723.430969,611.318237 721.968018,610.388733 720.765198,609.196777 
	C712.362183,600.869934 704.376709,592.081665 695.569397,584.211243 
	C678.162109,568.655701 657.576172,558.345581 635.801880,550.500916 
	C619.887451,544.767456 603.660950,539.531860 586.449951,540.114746 
	C575.444092,540.487488 564.461853,541.838440 553.493774,542.986877 
	C535.008667,544.922424 517.063599,549.264343 499.369629,554.951660 
	C475.263123,562.700195 453.507416,574.569153 434.443054,591.176392 
	C424.833740,599.547119 417.158600,609.650574 410.815460,620.715942 
	C401.282867,637.345276 396.104614,655.355225 393.879456,675.208740 
M719.666016,384.094391 
	C720.836365,383.494843 722.048523,382.964478 723.170654,382.285278 
	C738.477234,373.020721 753.743103,363.688507 769.075562,354.467041 
	C789.755188,342.029572 810.518494,329.731018 831.182739,317.268188 
	C859.154297,300.398254 887.073608,283.441711 914.985229,266.472839 
	C916.758850,265.394531 918.273499,263.890198 919.908569,262.584076 
	C919.545227,262.097473 919.181824,261.610870 918.818481,261.124268 
	C829.614563,299.566956 744.995239,345.559479 672.149780,410.941498 
	C672.453247,411.449371 672.756714,411.957245 673.060120,412.465149 
	C688.388855,403.143341 703.717529,393.821503 719.666016,384.094391 
z"/>
<path fill="#A0B865" opacity="1.000000" stroke="none" 
	d="
M393.927582,674.762817 
	C396.104614,655.355225 401.282867,637.345276 410.815460,620.715942 
	C417.158600,609.650574 424.833740,599.547119 434.443054,591.176392 
	C453.507416,574.569153 475.263123,562.700195 499.369629,554.951660 
	C517.063599,549.264343 535.008667,544.922424 553.493774,542.986877 
	C564.461853,541.838440 575.444092,540.487488 586.449951,540.114746 
	C603.660950,539.531860 619.887451,544.767456 635.801880,550.500916 
	C657.576172,558.345581 678.162109,568.655701 695.569397,584.211243 
	C704.376709,592.081665 712.362183,600.869934 720.765198,609.196777 
	C721.968018,610.388733 723.430969,611.318237 725.527832,612.959656 
	C732.887756,592.548218 739.927979,573.023499 747.025330,553.340210 
	C750.718567,553.528259 751.676208,555.205872 750.104797,559.274719 
	C740.599304,583.887634 731.927856,608.841980 721.774353,633.180237 
	C709.656982,662.225647 694.097778,689.585327 675.768433,715.148682 
	C663.424377,732.364563 649.826416,748.709656 636.320740,765.057190 
	C619.905518,784.926514 600.213501,801.251953 578.883423,815.573914 
	C565.079895,824.842224 550.461792,832.562195 534.729004,838.244812 
	C522.402649,842.697021 510.630981,848.739685 498.209198,852.858154 
	C483.953796,857.584595 469.403870,861.689087 454.709412,864.760193 
	C434.484039,868.987366 413.902771,870.775818 393.178009,869.989014 
	C392.210358,869.952209 391.247894,869.778748 390.244843,869.664673 
	C389.815033,865.503174 392.061493,864.868042 395.387421,864.965576 
	C426.464203,865.877075 456.597504,860.173889 486.335876,851.801514 
	C487.378326,851.508057 488.337677,850.919189 488.158936,851.000000 
	C478.482300,851.000000 467.705017,850.421448 457.023865,851.186035 
	C448.728149,851.779846 443.366089,848.238281 438.741791,842.220825 
	C421.671082,820.006897 408.305786,795.766663 400.596039,768.803284 
	C397.056091,756.423035 395.031464,743.551514 393.120056,730.782959 
	C391.732391,721.513062 391.033051,712.036560 391.178009,702.670044 
	C391.319885,693.504578 392.919617,684.361572 393.927582,674.762817 
z"/>
<path fill="#A0B865" opacity="1.000000" stroke="none" 
	d="
M719.356140,384.297058 
	C703.717529,393.821503 688.388855,403.143341 673.060120,412.465149 
	C672.756714,411.957245 672.453247,411.449371 672.149780,410.941498 
	C744.995239,345.559479 829.614563,299.566956 918.818481,261.124268 
	C919.181824,261.610870 919.545227,262.097473 919.908569,262.584076 
	C918.273499,263.890198 916.758850,265.394531 914.985229,266.472839 
	C887.073608,283.441711 859.154297,300.398254 831.182739,317.268188 
	C810.518494,329.731018 789.755188,342.029572 769.075562,354.467041 
	C753.743103,363.688507 738.477234,373.020721 723.170654,382.285278 
	C722.048523,382.964478 720.836365,383.494843 719.356140,384.297058 
z"/>
</svg>