<svg version="1.1" id="Layer_1" xmlns="http://www.w3.org/2000/svg" xmlns:xlink="http://www.w3.org/1999/xlink" x="0px" y="0px"
	 width="100%" viewBox="0 0 928 463" enable-background="new 0 0 928 463" xml:space="preserve">
<path fill="#FFFFFF" opacity="1.000000" stroke="none" 
	d="
M1.000000,43.000000 
	C1.000000,29.008011 1.000000,15.016022 1.000000,1.000000 
	C236.024094,1.000000 471.048187,1.000000 706.362366,1.331838 
	C703.420410,2.802893 700.260437,4.247478 696.944092,5.029361 
	C681.157776,8.751328 665.328857,12.293036 649.263916,15.956177 
	C649.687439,17.099419 650.259949,18.644880 650.585510,19.523636 
	C645.919556,20.164118 641.456909,20.776690 636.424927,21.467417 
	C636.384705,21.379978 635.867126,20.254276 634.906799,18.165642 
	C633.050659,20.291454 629.950439,22.775385 630.339417,23.586742 
	C631.795837,26.624939 628.741882,31.792358 635.104919,32.564331 
	C633.260315,34.164459 631.991638,35.265026 630.261780,36.765629 
	C629.409790,30.802153 628.742554,25.774179 627.927979,20.770193 
	C627.786987,19.903894 627.218567,18.827740 626.511353,18.382183 
	C623.683533,16.600613 617.982788,18.324072 615.698242,21.945265 
	C613.659363,25.177235 610.532532,28.873447 616.709351,31.957542 
	C612.002930,31.099512 607.830017,29.675444 603.539307,28.923939 
	C601.640564,28.591379 598.785767,28.926928 597.600037,30.153313 
	C592.771362,35.147480 587.020264,32.446522 581.645752,32.700848 
	C579.855469,32.785561 577.886169,31.950426 576.275574,32.442242 
	C571.100098,34.022610 566.053894,36.026371 560.378540,38.076042 
	C560.139587,31.744600 557.149109,32.880291 554.436584,33.409706 
	C554.648743,35.619560 554.831482,37.522308 555.007446,39.355057 
	C551.910583,40.150486 549.236938,40.837200 546.410034,41.366623 
	C546.256653,41.209339 545.922729,40.923794 546.101685,40.630272 
	C549.645203,39.121147 549.540649,37.278496 546.872253,35.524265 
	C545.118896,34.371536 543.058472,33.575596 541.031067,32.969673 
	C533.979797,30.862265 526.361145,29.918173 519.951111,26.608625 
	C513.619507,23.339560 507.981201,24.067234 501.917572,25.595749 
	C498.758484,26.392084 495.781586,27.953283 492.607941,28.640518 
	C486.519653,29.958881 482.224854,33.454311 478.172638,38.066307 
	C473.769043,43.078201 468.580414,47.452232 463.423706,51.730209 
	C460.550568,54.113777 457.017242,55.691093 453.834503,57.715157 
	C451.225922,59.374054 448.695801,61.156258 446.130920,62.883804 
	C448.085297,65.427757 450.093414,67.932625 451.979309,70.526390 
	C453.963165,73.254906 456.768158,75.812653 452.568054,79.267326 
	C451.536865,80.115494 451.942719,82.710793 451.687897,84.502876 
	C451.990875,84.589470 452.293823,84.676071 452.596771,84.762665 
	C451.484314,85.984482 450.371887,87.206291 449.192352,88.501785 
	C450.095093,88.843140 450.850433,89.128769 453.388092,90.088371 
	C445.255280,95.283188 438.119659,99.841034 430.866547,104.473946 
	C431.808167,105.175003 433.390961,106.084602 434.632751,107.333305 
	C437.310364,110.025772 439.708496,112.681435 438.139282,117.208298 
	C436.499573,121.938713 432.903046,119.397087 430.181396,119.899139 
	C429.010712,120.115089 427.631989,119.000946 426.394440,119.096359 
	C423.208008,119.342026 419.310974,119.279861 419.085144,123.725792 
	C418.765808,130.013428 419.004242,136.329391 419.004242,142.321472 
	C421.217163,143.085526 422.937653,143.608017 424.604218,144.266907 
	C433.549255,147.803329 440.315216,144.386383 443.145081,135.171021 
	C443.739868,133.234070 445.340759,131.563080 446.642670,129.898270 
	C447.963196,128.209595 449.712128,126.825882 450.866455,125.044830 
	C452.356323,122.746040 464.153168,118.661530 466.582825,119.894753 
	C467.164062,120.189789 467.818573,120.433479 468.271301,120.873672 
	C471.319061,123.836754 474.365112,126.804169 477.323425,129.855759 
	C479.328491,131.924088 481.189728,134.131836 484.012421,137.276794 
	C479.490387,138.279907 476.311523,138.985077 472.910126,139.739594 
	C479.830811,144.922562 484.635193,143.423828 486.046326,136.134796 
	C486.365051,134.488541 487.428741,132.986511 488.354309,130.972366 
	C484.516144,126.094795 478.236664,122.169907 475.408417,115.256607 
	C479.456390,117.191841 482.894623,119.756317 486.047607,122.633369 
	C488.219666,124.615334 491.649200,127.025230 491.655975,129.252594 
	C491.681549,137.631104 497.530853,138.995193 504.400146,141.224091 
	C503.664795,138.733505 502.916870,136.985596 502.694061,135.173126 
	C502.542297,133.938751 503.125214,132.614059 503.379608,131.329758 
	C505.164062,131.723312 507.339569,131.633881 508.609924,132.662415 
	C509.636566,133.493652 509.750427,135.649078 509.959564,137.257385 
	C510.685333,142.837509 514.087952,145.934814 519.859253,145.990829 
	C524.481628,146.035721 529.104797,145.999908 534.598694,145.999908 
	C533.111572,151.124481 532.268799,155.685928 530.353333,159.740662 
	C529.671936,161.183167 526.422791,161.533478 524.272827,162.110443 
	C523.202271,162.397736 521.838135,161.714813 520.827148,162.080215 
	C514.437683,164.389481 508.948273,162.115417 503.397705,159.217728 
	C498.058838,156.430496 495.009674,157.659744 492.925049,162.864471 
	C492.633270,163.593018 492.067230,164.211731 491.412537,165.209976 
	C484.762573,161.727188 478.204712,158.360611 471.740570,154.822739 
	C470.915375,154.371078 470.227448,153.077698 470.081848,152.085342 
	C469.632019,149.020004 470.582947,144.481262 468.917267,143.191498 
	C466.950500,141.668579 462.765442,142.588989 459.639313,143.075302 
	C453.690247,144.000748 447.777832,145.231232 441.911926,146.599625 
	C437.231567,147.691452 432.727112,151.091248 427.159515,146.150665 
	C423.329102,152.588547 419.750397,158.570007 416.207397,164.572540 
	C414.500061,167.465027 413.026611,170.510986 411.138916,173.276993 
	C409.512085,175.660751 407.077942,177.531891 405.647186,180.003845 
	C401.491425,187.183853 398.123047,194.630905 399.133820,203.352554 
	C399.522217,206.704178 399.241028,210.136322 399.221832,213.531540 
	C399.196289,218.052139 397.767456,223.142532 399.370667,226.970840 
	C402.434082,234.286026 406.644806,241.320877 411.493164,247.613907 
	C414.433929,251.430878 419.659393,256.301117 423.513062,256.016785 
	C431.588470,255.420975 440.450684,256.235382 447.781464,251.073196 
	C450.503235,249.156540 453.230804,250.100037 454.710938,252.414078 
	C456.848663,255.756241 459.823456,257.011566 463.259308,258.400635 
	C464.991302,259.100891 467.140289,262.491455 466.754089,264.103210 
	C464.308777,274.308685 467.529938,283.021698 471.791351,292.087280 
	C475.413422,299.792725 479.082367,308.257263 475.322052,317.075958 
	C472.650299,323.341766 472.231781,329.479614 474.007202,335.865204 
	C478.699554,352.741882 483.435638,369.606750 488.273254,386.442139 
	C488.795227,388.258667 489.774506,390.928009 491.103790,391.326416 
	C493.998291,392.194031 497.323059,392.338501 500.352661,391.918304 
	C512.753113,390.198334 523.152588,380.477112 526.060730,368.439667 
	C526.662903,365.947052 526.912598,362.810150 528.546387,361.247162 
	C531.557922,358.366119 532.249817,355.296417 532.065979,351.470276 
	C531.957642,349.215302 531.804688,346.490814 532.896606,344.742554 
	C535.640808,340.348907 539.174561,336.456879 542.201965,332.227936 
	C543.684204,330.157532 545.808899,327.778259 545.795471,325.549988 
	C545.754822,318.826752 544.670654,312.117645 544.251038,305.386963 
	C543.746521,297.294159 542.236633,289.108856 546.829468,281.475006 
	C554.530151,268.675842 562.216980,255.861359 569.526611,242.838379 
	C571.572510,239.193375 572.276367,234.795044 573.595825,230.742294 
	C573.156982,230.387177 572.718140,230.032059 572.279297,229.676941 
	C568.286926,230.894852 564.246460,231.977295 560.317749,233.374130 
	C557.253479,234.463638 555.066711,234.388489 553.413574,231.031036 
	C548.396484,220.841446 542.771301,210.933273 538.144653,200.575256 
	C534.528137,192.478668 532.047241,183.874847 529.061768,175.496399 
	C529.601440,175.142487 530.141174,174.788589 530.680847,174.434692 
	C532.091187,176.511856 533.923828,178.418457 534.842957,180.694031 
	C540.552490,194.830002 546.026733,209.060806 551.644958,223.233994 
	C553.881287,228.875641 556.200012,229.512421 561.346863,226.125107 
	C566.007141,223.058075 570.342773,219.235443 575.390015,217.072937 
	C586.122620,212.474594 591.964050,204.076538 596.171570,192.926208 
	C593.843628,190.829376 590.843384,188.800659 588.761169,186.071533 
	C586.446594,183.037903 585.018921,182.231628 581.892090,185.235825 
	C580.544678,186.530365 576.058777,187.059555 575.417114,186.177368 
	C571.542175,180.849915 568.367676,175.013062 564.958862,169.346573 
	C565.310608,168.975479 565.662415,168.604370 566.014160,168.233276 
	C567.331604,168.808578 569.133789,169.016434 569.891357,170.016037 
	C577.394714,179.916077 588.182007,181.838211 599.555420,183.113068 
	C608.539612,184.120117 616.488708,187.333862 620.489563,196.682358 
	C621.445129,198.915237 624.027771,200.451813 625.986450,202.434601 
	C627.162842,200.613495 627.833557,199.575134 628.508545,198.530151 
	C632.217102,214.157593 635.860779,229.511673 639.504456,244.865768 
	C639.990479,245.036682 640.476501,245.207596 640.962524,245.378525 
	C642.353455,242.816116 644.231262,240.395996 645.030640,237.660690 
	C646.539001,232.499344 647.022461,227.027542 648.655090,221.915726 
	C652.201965,210.810333 662.346558,204.802399 669.498047,196.522919 
	C672.649109,192.874878 676.598511,194.613693 678.734619,199.489853 
	C681.224548,205.173843 683.354858,211.015411 685.645813,216.800034 
	C687.596558,216.162918 689.517578,215.535522 691.865906,214.768555 
	C692.767273,232.201126 693.412292,249.065063 704.640442,264.017487 
	C696.375305,262.100891 694.781006,252.268600 685.669556,253.429749 
	C690.751038,261.826447 695.375671,270.083527 700.620239,277.926117 
	C704.348267,283.500946 706.357300,290.636017 713.578369,293.824951 
	C714.787231,295.722046 715.557678,298.370514 716.929443,298.731049 
	C723.717529,300.515076 730.664612,301.694458 737.555603,303.087036 
	C731.367188,295.337097 722.763855,294.025879 714.047119,292.475098 
	C713.344116,287.679138 713.494995,282.970612 711.788635,279.075775 
	C709.676453,274.254791 707.472595,270.298462 708.692139,264.378265 
	C710.135925,257.369324 706.188293,250.943970 701.849854,245.444107 
	C697.159668,239.498108 695.549805,233.455048 699.787781,226.304550 
	C704.106079,231.332504 708.428406,236.365219 712.888245,241.557922 
	C715.018860,239.273514 716.336792,237.301712 718.147095,236.031937 
	C722.352600,233.082214 723.700989,229.097122 722.151367,224.538605 
	C720.379700,219.326660 718.317505,214.105240 715.548767,209.375443 
	C713.417236,205.734238 714.717651,203.150208 716.369751,200.308121 
	C718.096313,197.338043 720.552551,197.843597 723.302673,198.848587 
	C724.379517,199.242096 725.956299,198.841293 727.110596,198.347198 
	C731.490540,196.472427 735.894226,194.602539 740.077637,192.339981 
	C742.191772,191.196594 744.892090,189.550079 745.532471,187.554977 
	C747.796143,180.501617 754.088196,175.578491 753.716919,166.703445 
	C753.456299,160.475632 752.714661,155.368408 749.455933,150.685516 
	C750.652100,147.150742 756.228394,146.245926 754.871399,141.982574 
	C751.371765,140.850357 748.552368,139.938187 744.483826,138.621902 
	C748.343811,135.256180 750.776184,133.135239 753.585083,130.686035 
	C753.936218,132.971725 754.154053,134.389328 754.376892,135.839737 
	C761.304871,133.832031 761.797913,134.064270 764.005127,140.669312 
	C764.781921,142.993820 765.050476,145.551392 766.171143,147.675385 
	C766.911316,149.078217 768.756714,149.897842 770.107239,150.978607 
	C771.070740,149.731659 772.624451,148.587540 772.863647,147.214386 
	C773.252441,144.982666 773.216553,142.475174 772.590088,140.306488 
	C770.768005,133.998840 774.340698,124.584976 780.607239,123.527977 
	C786.649292,122.508842 789.606140,119.010086 792.788147,114.778267 
	C797.391357,108.656303 803.465149,103.376297 803.229309,94.720032 
	C803.212463,94.102386 804.129456,93.459312 805.003479,92.316559 
	C805.003479,98.059837 804.852356,103.063026 805.118652,108.043884 
	C805.178833,109.170464 806.690491,110.219444 807.416992,111.153748 
	C809.143616,106.887283 810.500793,103.701973 811.700928,100.458511 
	C812.031433,99.565353 812.146973,98.437080 811.925903,97.521751 
	C810.836304,93.009254 809.600403,88.532074 808.306152,83.625313 
	C806.712952,84.922791 805.596008,85.832466 805.214172,86.143433 
	C802.359680,84.992004 799.901855,83.044823 797.768066,83.351547 
	C794.057251,83.884964 792.466736,82.392914 791.047485,79.736710 
	C794.499207,76.687988 797.561035,73.664093 800.944702,71.058067 
	C809.246948,64.663948 819.129395,65.475449 828.574890,66.228836 
	C834.623718,66.711296 838.905029,65.352432 842.782593,60.887882 
	C844.284058,59.159111 846.787292,57.445789 848.881714,57.385838 
	C850.288574,57.345570 851.778992,60.221642 853.133362,61.686241 
	C855.515747,60.139980 857.934509,58.570103 860.353271,57.000221 
	C860.656067,57.437397 860.958923,57.874573 861.261719,58.311749 
	C857.939514,60.847210 854.680481,63.470909 851.283447,65.901787 
	C840.620544,73.532036 837.806396,80.792694 842.896545,92.299736 
	C846.031982,90.103180 850.348450,87.738457 853.820374,84.475159 
	C857.902954,80.637779 861.416077,76.114914 859.361389,69.683403 
	C859.146851,69.011787 859.765930,67.538177 860.394165,67.221169 
	C864.098022,65.352036 868.120728,61.964970 871.658142,62.372139 
	C878.583740,63.169308 883.994019,60.268238 889.819336,58.023735 
	C893.991394,56.416237 898.083069,54.600212 902.282288,52.847317 
	C901.182495,50.760483 900.516968,49.497681 899.927856,48.379890 
	C903.753174,43.132294 907.865540,42.995052 913.164368,45.916897 
	C919.614258,49.473419 921.504089,48.831089 926.694031,43.831707 
	C927.397766,43.153755 928.228210,42.607315 929.000000,41.999992 
	C929.000000,182.611252 929.000000,323.222504 929.000000,464.000000 
	C707.642639,464.000000 486.285187,464.000000 264.449646,463.642029 
	C262.347290,461.736115 260.831116,460.051392 259.078308,458.666107 
	C254.077606,454.714050 253.517136,451.014465 257.322754,446.162170 
	C258.131287,445.131287 258.860107,444.035583 259.591064,442.946533 
	C262.996704,437.872375 262.823456,436.146271 258.416229,432.105774 
	C264.810181,428.454376 266.457550,422.526398 266.107544,416.454529 
	C268.232758,414.676758 270.946198,413.530396 271.338501,411.844055 
	C272.146362,408.371185 274.498413,408.138824 277.032715,407.463989 
	C284.288513,405.531860 286.200378,402.080505 284.081451,394.226349 
	C285.786652,393.816284 287.525330,393.526001 289.171387,392.964264 
	C290.648376,392.460205 292.676788,392.043518 293.337952,390.924316 
	C297.737122,383.477539 302.120361,375.992920 305.932617,368.237396 
	C308.628540,362.752930 310.656189,357.509399 317.118591,354.733765 
	C324.070831,351.747711 326.938446,345.082520 328.032440,337.687561 
	C329.772186,325.927704 332.197998,314.446136 340.330750,304.995697 
	C343.708496,301.070679 342.753235,291.995453 338.881683,289.556091 
	C332.993561,285.846069 327.476288,281.858185 320.184692,280.201782 
	C313.746582,278.739288 308.021118,274.139526 301.753906,270.804108 
	C303.082397,261.177063 298.610657,253.715561 288.878510,250.461502 
	C283.705994,248.731979 279.742249,245.760956 276.474487,241.274704 
	C273.953979,237.814316 271.154816,234.089828 265.560150,234.894241 
	C262.712952,235.303635 259.430481,234.853989 256.756134,233.773987 
	C253.025940,232.267563 249.986526,232.065384 247.166412,235.458755 
	C247.025635,233.232162 246.901108,231.262436 246.717377,228.356354 
	C244.896393,229.520767 243.485138,230.174850 242.389771,231.174911 
	C240.054504,233.307068 237.912903,235.649536 235.637177,237.849167 
	C232.590912,240.793594 226.734711,240.788376 221.350784,238.128403 
	C217.389938,236.171539 216.633728,232.806061 217.041809,228.968094 
	C218.373184,216.446854 218.413483,216.452515 205.705704,215.955170 
	C205.382126,215.942505 205.063126,215.812897 204.794312,215.750046 
	C205.693069,210.029861 206.591095,204.314407 207.510880,198.460541 
	C203.200729,197.644363 200.333664,197.667984 198.769836,201.497803 
	C197.162384,205.434494 194.240524,207.692398 189.823776,206.826309 
	C186.039810,206.084305 182.087677,200.964828 182.023727,196.962967 
	C181.933197,191.298721 182.053986,185.631287 181.984589,179.966446 
	C181.926407,175.216858 186.783768,169.273743 192.486954,169.863693 
	C196.272278,170.255249 201.204559,173.477844 203.662537,167.260468 
	C203.754669,167.027420 204.589355,167.081909 205.079514,167.013123 
	C211.410645,166.124512 216.416000,168.848038 218.851608,174.581848 
	C220.168808,177.682709 221.383011,180.827332 222.643677,183.952194 
	C223.129898,184.010254 223.616135,184.068298 224.102356,184.126358 
	C224.455460,182.838882 225.163528,181.531189 225.091537,180.267960 
	C224.914291,177.157822 224.844589,173.916290 223.894867,171.000137 
	C221.549149,163.797607 224.979370,159.618591 230.427933,155.720001 
	C234.439255,152.849792 238.120346,149.286774 236.061005,143.348206 
	C235.809052,142.621597 235.769669,141.404892 236.200119,140.923035 
	C240.121613,136.533249 244.173874,132.260437 248.176666,127.942993 
	C249.165161,126.876770 250.389084,125.913849 251.029831,124.660614 
	C253.450272,119.926353 257.121521,117.037209 262.433990,116.226822 
	C262.828796,117.120422 263.215027,117.994667 263.592621,118.849304 
	C276.563385,115.146034 276.563385,115.146034 275.289673,108.763969 
	C273.877808,109.317947 272.567230,110.188545 271.212616,110.263496 
	C269.857697,110.338455 267.440094,109.902084 267.244263,109.200043 
	C265.959259,104.593391 263.599121,101.295448 256.983459,100.699547 
	C259.741150,99.744812 260.790192,99.222832 261.897156,99.024872 
	C267.849609,97.960411 273.983368,97.517059 279.711609,95.748566 
	C282.817200,94.789772 287.076324,91.892593 287.449707,89.371353 
	C287.815796,86.899689 284.295990,83.390411 281.808929,81.052063 
	C276.201935,75.780396 269.282898,71.744568 266.881958,63.704857 
	C266.587860,62.720051 265.756195,61.895767 265.371338,61.302101 
	C262.380005,63.792824 259.677338,66.043190 256.685577,68.534264 
	C255.326797,66.987251 253.706299,65.987473 253.458740,64.719627 
	C252.115570,57.840893 247.193237,55.274078 241.142426,54.729511 
	C237.965927,54.443623 232.497986,54.813843 231.831024,56.436138 
	C230.279312,60.210526 229.502869,65.696342 231.220886,69.049751 
	C233.125793,72.768005 233.591263,74.852753 231.084595,78.000084 
	C229.937485,79.440376 229.443085,81.470848 228.900818,83.306961 
	C227.962387,86.484573 227.217270,89.719284 226.032120,94.324898 
	C224.069641,90.724037 222.535248,88.432854 221.522324,85.930573 
	C219.890900,81.900406 217.498627,79.176003 213.065125,77.909401 
	C207.566940,76.338631 202.275848,74.041962 196.897598,72.052650 
	C189.361847,69.265320 187.581284,62.519444 193.337448,57.274216 
	C199.297592,51.843098 205.662811,46.854649 211.901108,41.733795 
	C212.473251,41.264122 213.395355,41.123634 214.179535,41.024284 
	C222.621872,39.954746 222.936752,39.524567 221.589127,30.584919 
	C228.403595,27.842054 237.394043,30.558315 243.363739,37.059635 
	C243.048981,44.977261 233.795212,42.103817 231.185196,46.142700 
	C241.334503,49.636501 251.040894,52.977825 260.976288,56.397987 
	C260.723846,55.091610 260.484680,53.854000 260.242859,52.602577 
	C261.723419,52.101368 263.215027,51.596416 265.175781,50.932659 
	C262.571411,47.639641 260.301849,44.769985 258.032318,41.900333 
	C260.320251,42.357086 262.173889,43.253281 263.831970,44.425983 
	C267.611694,47.099224 269.365540,44.708843 271.064697,41.783340 
	C273.192871,38.119175 269.843842,37.615601 267.935028,36.513519 
	C265.539734,35.130527 261.970428,34.763813 260.613342,32.787395 
	C256.267883,26.458961 249.306519,24.510929 243.228241,21.089828 
	C235.057709,16.491100 226.174347,14.878635 216.951111,16.088551 
	C211.549652,16.797119 205.411896,15.431836 200.837479,21.000277 
	C203.332764,24.757475 205.930283,28.668610 208.871094,33.096645 
	C200.230789,31.794868 194.529037,27.799929 190.981262,20.627064 
	C192.800690,18.927740 194.438538,17.398003 196.794785,15.197298 
	C192.511536,15.197298 189.550262,15.197298 187.165482,15.197298 
	C182.828186,19.857843 188.007111,29.137819 178.021683,30.575813 
	C178.855042,34.676769 176.251114,35.447979 172.998444,34.955673 
	C168.640167,34.296028 164.333054,33.303173 159.996414,32.493942 
	C157.297546,31.990326 154.516510,30.805811 152.677261,34.400616 
	C152.273941,35.188889 150.255188,35.462513 148.987793,35.444698 
	C142.248215,35.349998 136.108276,33.524509 129.801514,30.785105 
	C124.303024,28.396793 117.592827,28.740608 111.401726,28.016487 
	C98.713608,26.532463 86.521965,32.982059 73.623100,30.136147 
	C66.758034,28.621489 59.500938,28.953028 52.568092,27.660919 
	C40.550961,25.421232 28.628916,25.010075 16.806564,28.220276 
	C12.609648,29.359896 8.698467,31.551809 3.983563,33.548462 
	C7.238167,36.177063 9.347692,37.880833 11.298098,39.456089 
	C7.784565,40.665211 4.392283,41.832607 1.000000,43.000000 
M823.986816,343.471344 
	C818.305481,332.683014 812.624146,321.894684 806.417725,310.109283 
	C805.493530,316.466949 804.825562,321.653809 803.923218,326.799561 
	C803.729309,327.905457 802.908569,329.449432 802.000732,329.790131 
	C797.349670,331.535309 790.862366,325.688416 791.693665,320.687531 
	C792.645203,314.963867 791.570862,313.674164 785.812195,312.978668 
	C781.409058,312.446930 777.877502,313.597412 776.104858,317.846039 
	C774.667236,321.292023 773.032532,323.097778 768.999146,321.224426 
	C767.854187,320.692657 765.407410,321.242432 764.513489,322.194092 
	C760.919128,326.020508 756.820862,329.774231 754.598999,334.371674 
	C752.554077,338.603027 749.564148,340.414856 745.779358,341.970978 
	C743.809082,342.781097 741.852722,343.633270 739.932068,344.554108 
	C735.802490,346.533997 733.661194,349.683258 733.980835,354.430664 
	C734.712463,365.295044 735.181152,376.179352 736.065979,387.030334 
	C736.726501,395.130463 739.988098,396.724640 747.735840,393.707397 
	C756.582153,390.262360 765.509949,387.017029 774.467468,383.870392 
	C780.016663,381.921051 783.392456,383.457764 786.294678,388.664673 
	C787.353027,390.563446 788.557434,392.380890 789.936218,394.628357 
	C791.431702,392.736969 792.397766,391.515045 793.748169,389.807129 
	C796.246704,394.284241 798.392578,398.443970 800.868469,402.396973 
	C801.747681,403.800812 803.387451,405.609375 804.752502,405.672791 
	C810.181824,405.924988 815.670837,405.845001 821.068848,405.256683 
	C822.737610,405.074799 824.909546,403.198853 825.613098,401.565369 
	C828.654785,394.503479 831.053772,387.166351 834.043152,380.079834 
	C836.613281,373.987274 837.220825,367.680267 834.693909,361.827393 
	C831.996887,355.580444 827.952148,349.915344 823.986816,343.471344 
M797.903198,277.430939 
	C796.034851,278.022644 793.691772,278.104736 792.396301,279.311462 
	C789.643433,281.875946 788.245239,281.152344 787.020752,278.122375 
	C786.651672,277.209320 786.325989,275.668854 785.754639,275.555725 
	C783.574158,275.123962 780.743835,274.254639 779.186646,275.216644 
	C776.473999,276.892578 778.704651,278.296051 780.557129,279.256958 
	C780.978821,279.475677 781.611145,279.951508 781.587646,280.267517 
	C781.069824,287.240967 787.334351,287.237488 791.214233,289.604706 
	C794.441711,291.573822 797.229675,293.504669 796.137329,298.081482 
	C795.914368,299.015717 797.064819,300.914703 798.050720,301.383392 
	C801.261963,302.909973 804.690247,303.980225 808.095215,305.248505 
	C809.004211,303.316956 809.750000,301.732178 810.569031,299.991638 
	C816.642212,301.947815 820.463318,308.436157 828.699646,308.625641 
	C825.952576,305.169983 823.733948,302.973206 822.258606,300.357269 
	C820.758728,297.697876 820.260925,294.480591 818.811951,291.782837 
	C817.781067,289.863556 816.177185,287.956177 814.347229,286.818268 
	C809.209717,283.623596 803.822754,280.830048 797.903198,277.430939 
M730.082153,260.691895 
	C728.423767,262.146088 726.984741,264.093140 725.060364,264.949707 
	C721.290527,266.627686 720.312744,269.195038 721.430908,272.846954 
	C722.147278,275.186615 723.058228,277.467163 723.897766,279.768463 
	C724.838989,282.348572 736.331787,286.953430 738.630554,285.622345 
	C739.156799,285.317596 739.755127,284.707031 739.851562,284.155334 
	C741.167969,276.619263 748.707520,270.285858 744.157104,261.533966 
	C743.644653,260.548248 744.294556,258.444641 745.095459,257.377045 
	C748.903015,252.301544 745.108154,250.341888 741.596252,247.794357 
	C737.760315,252.028152 734.113098,256.053650 730.082153,260.691895 
M553.340393,351.769073 
	C554.959167,354.984253 556.577942,358.199402 558.337036,361.693390 
	C567.367004,353.452179 574.010254,321.573334 569.174683,315.651886 
	C557.555542,324.479248 552.783447,336.615509 553.340393,351.769073 
M805.997986,131.722870 
	C805.518799,129.581848 805.039551,127.440842 804.421936,124.681419 
	C810.763306,128.075287 812.308777,121.993500 816.642090,120.021660 
	C812.740112,117.774063 809.569336,115.947678 806.364990,114.101929 
	C802.632141,119.265572 799.680481,123.940331 800.748962,130.521805 
	C801.162476,133.069305 799.381592,136.621628 797.507568,138.757278 
	C793.562378,143.253464 788.703430,146.697845 783.045715,149.156693 
	C780.009705,150.476120 777.420654,153.138290 775.060242,155.606125 
	C772.868408,157.897552 774.789307,162.563797 778.726562,164.086014 
	C779.058533,157.979935 783.262329,156.312134 788.410583,155.769684 
	C789.363708,155.669266 790.441895,155.412323 791.181763,154.855026 
	C795.328552,151.731506 802.034424,151.856277 803.652283,145.598831 
	C804.753357,141.340179 805.238464,136.922287 805.997986,131.722870 
M888.604553,402.149658 
	C888.604553,406.022461 888.604553,409.895294 888.604553,413.591675 
	C886.841614,414.085876 884.007202,414.035919 882.600769,415.428314 
	C877.811462,420.169739 873.480774,425.381439 869.098389,430.518890 
	C868.481201,431.242340 868.550476,432.551392 868.302002,433.589417 
	C869.296997,433.738831 870.303955,434.072296 871.285095,434.008575 
	C879.094910,433.501373 887.177917,425.430878 889.066223,416.367676 
	C889.153870,415.947144 889.437439,415.567444 889.698669,415.025696 
	C890.895508,415.615143 891.930542,416.124878 893.037842,416.670258 
	C895.656006,412.168793 898.048279,408.055817 899.557739,405.460602 
	C894.562988,400.862610 890.553650,397.171692 885.484497,392.505127 
	C886.568909,396.183777 887.349609,398.832245 888.604553,402.149658 
M756.620178,287.790833 
	C756.390808,283.640503 756.161377,279.490143 755.917480,275.077972 
	C755.210510,275.013275 753.199341,274.829254 751.188171,274.645264 
	C753.303406,272.839783 755.545471,272.077179 757.662537,271.055756 
	C759.629944,270.106598 761.464050,268.881439 763.356873,267.777771 
	C763.084656,267.360901 762.812439,266.944031 762.540222,266.527161 
	C761.042358,267.014709 759.576660,267.749939 758.041321,267.949615 
	C748.005066,269.254669 747.999878,269.216797 748.000244,279.340942 
	C748.000305,281.666504 747.813049,284.013153 748.068909,286.310364 
	C748.245911,287.899750 749.035889,289.420837 749.552002,290.972443 
	C749.928101,290.897614 750.304199,290.822784 750.680298,290.747955 
	C750.853455,288.761566 751.026550,286.775177 751.166016,285.174805 
	C752.781494,286.210571 754.434143,287.270203 756.620178,287.790833 
M439.043823,75.840195 
	C438.624786,78.449486 438.205780,81.058784 437.770782,83.767517 
	C447.178497,84.017929 451.132019,79.313438 449.270142,71.283089 
	C442.102173,70.660004 442.102173,70.660004 439.043823,75.840195 
M755.991211,210.937622 
	C755.517639,208.218063 754.022644,206.131851 751.495117,208.414795 
	C747.226257,212.270630 748.473267,221.467651 753.344666,224.655197 
	C755.227234,225.887070 757.307739,226.816589 759.298035,227.883850 
	C759.652466,227.663910 760.006836,227.443970 760.361206,227.224030 
	C759.480408,225.605835 758.871094,222.864807 757.669250,222.574158 
	C753.621033,221.595139 754.733765,218.978806 755.048279,216.520493 
	C755.254211,214.911209 755.674133,213.329315 755.991211,210.937622 
M216.043030,192.535370 
	C216.338913,193.351395 216.742706,194.902405 216.915039,194.877090 
	C222.825165,194.009384 227.026947,197.438004 231.077408,200.738541 
	C234.242096,203.317307 236.843521,202.904938 240.503967,200.123138 
	C233.638397,196.948257 227.336548,193.897614 220.891525,191.187439 
	C219.812653,190.733765 218.112793,191.756821 216.043030,192.535370 
M765.037537,238.184387 
	C762.233643,240.302414 759.429688,242.420441 756.451660,244.669937 
	C758.903076,247.663086 760.809692,249.991119 762.873230,252.510742 
	C767.967041,248.082672 765.431335,243.044144 765.037537,238.184387 
M814.089722,414.063110 
	C810.187317,415.768707 813.220337,417.682983 813.979858,419.451477 
	C815.125122,422.118103 817.400940,424.396851 819.961243,422.647827 
	C821.633301,421.505615 821.779480,418.129730 822.776184,415.276154 
	C819.348816,414.725067 817.127686,414.367950 814.089722,414.063110 
M250.771057,209.659729 
	C252.282928,208.692215 253.794800,207.724686 256.654449,205.894638 
	C251.585495,204.301788 248.054428,203.192184 244.246918,201.995728 
	C244.019104,204.726974 243.834839,206.936234 243.585571,209.924789 
	C245.863937,209.924789 247.929398,209.924789 250.771057,209.659729 
M466.995056,129.452728 
	C466.338440,127.447380 465.681824,125.442024 465.025238,123.436676 
	C464.729065,123.526642 464.432892,123.616615 464.136719,123.706581 
	C464.136719,128.094803 464.136719,132.483017 464.136719,136.871231 
	C464.950928,136.922775 465.765137,136.974335 466.579376,137.025879 
	C466.753082,134.761795 466.926758,132.497726 466.995056,129.452728 
M825.830444,293.909393 
	C829.916931,294.247803 831.324524,291.505585 833.068176,287.324860 
	C828.784363,289.142548 825.490173,290.540344 821.541199,292.215973 
	C823.363098,292.920135 824.256592,293.265503 825.830444,293.909393 
M750.997437,188.364090 
	C750.997437,190.508728 750.997437,192.653351 750.997437,194.797989 
	C751.547607,194.800385 752.097778,194.802795 752.647949,194.805191 
	C753.104431,192.444717 753.728760,190.099503 753.945251,187.717239 
	C754.051025,186.553055 753.397705,185.319901 753.087952,184.117950 
	C752.391968,185.254425 751.695984,186.390900 750.997437,188.364090 
M760.022156,306.315033 
	C760.636902,306.728058 761.720398,307.575073 761.798340,307.490967 
	C764.013672,305.098694 766.127869,302.612732 768.258545,300.142029 
	C768.084229,299.886749 767.909912,299.631470 767.735657,299.376190 
	C765.164917,301.439850 762.594238,303.503479 760.022156,306.315033 
z"/>
<path fill="#A0B865" opacity="1.000000" stroke="none" 
	d="
M713.417114,293.521484 
	C706.357300,290.636017 704.348267,283.500946 700.620239,277.926117 
	C695.375671,270.083527 690.751038,261.826447 685.669556,253.429749 
	C694.781006,252.268600 696.375305,262.100891 704.640442,264.017487 
	C693.412292,249.065063 692.767273,232.201126 691.865906,214.768555 
	C689.517578,215.535522 687.596558,216.162918 685.645813,216.800034 
	C683.354858,211.015411 681.224548,205.173843 678.734619,199.489853 
	C676.598511,194.613693 672.649109,192.874878 669.498047,196.522919 
	C662.346558,204.802399 652.201965,210.810333 648.655090,221.915726 
	C647.022461,227.027542 646.539001,232.499344 645.030640,237.660690 
	C644.231262,240.395996 642.353455,242.816116 640.962524,245.378525 
	C640.476501,245.207596 639.990479,245.036682 639.504456,244.865768 
	C635.860779,229.511673 632.217102,214.157593 628.508545,198.530151 
	C627.833557,199.575134 627.162842,200.613495 625.986450,202.434601 
	C624.027771,200.451813 621.445129,198.915237 620.489563,196.682358 
	C616.488708,187.333862 608.539612,184.120117 599.555420,183.113068 
	C588.182007,181.838211 577.394714,179.916077 569.891357,170.016037 
	C569.133789,169.016434 567.331604,168.808578 566.014160,168.233276 
	C565.662415,168.604370 565.310608,168.975479 564.958862,169.346573 
	C568.367676,175.013062 571.542175,180.849915 575.417114,186.177368 
	C576.058777,187.059555 580.544678,186.530365 581.892090,185.235825 
	C585.018921,182.231628 586.446594,183.037903 588.761169,186.071533 
	C590.843384,188.800659 593.843628,190.829376 596.171570,192.926208 
	C591.964050,204.076538 586.122620,212.474594 575.390015,217.072937 
	C570.342773,219.235443 566.007141,223.058075 561.346863,226.125107 
	C556.200012,229.512421 553.881287,228.875641 551.644958,223.233994 
	C546.026733,209.060806 540.552490,194.830002 534.842957,180.694031 
	C533.923828,178.418457 532.091187,176.511856 530.680847,174.434692 
	C530.141174,174.788589 529.601440,175.142487 529.061768,175.496399 
	C532.047241,183.874847 534.528137,192.478668 538.144653,200.575256 
	C542.771301,210.933273 548.396484,220.841446 553.413574,231.031036 
	C555.066711,234.388489 557.253479,234.463638 560.317749,233.374130 
	C564.246460,231.977295 568.286926,230.894852 572.279297,229.676941 
	C572.718140,230.032059 573.156982,230.387177 573.595825,230.742294 
	C572.276367,234.795044 571.572510,239.193375 569.526611,242.838379 
	C562.216980,255.861359 554.530151,268.675842 546.829468,281.475006 
	C542.236633,289.108856 543.746521,297.294159 544.251038,305.386963 
	C544.670654,312.117645 545.754822,318.826752 545.795471,325.549988 
	C545.808899,327.778259 543.684204,330.157532 542.201965,332.227936 
	C539.174561,336.456879 535.640808,340.348907 532.896606,344.742554 
	C531.804688,346.490814 531.957642,349.215302 532.065979,351.470276 
	C532.249817,355.296417 531.557922,358.366119 528.546387,361.247162 
	C526.912598,362.810150 526.662903,365.947052 526.060730,368.439667 
	C523.152588,380.477112 512.753113,390.198334 500.352661,391.918304 
	C497.323059,392.338501 493.998291,392.194031 491.103790,391.326416 
	C489.774506,390.928009 488.795227,388.258667 488.273254,386.442139 
	C483.435638,369.606750 478.699554,352.741882 474.007202,335.865204 
	C472.231781,329.479614 472.650299,323.341766 475.322052,317.075958 
	C479.082367,308.257263 475.413422,299.792725 471.791351,292.087280 
	C467.529938,283.021698 464.308777,274.308685 466.754089,264.103210 
	C467.140289,262.491455 464.991302,259.100891 463.259308,258.400635 
	C459.823456,257.011566 456.848663,255.756241 454.710938,252.414078 
	C453.230804,250.100037 450.503235,249.156540 447.781464,251.073196 
	C440.450684,256.235382 431.588470,255.420975 423.513062,256.016785 
	C419.659393,256.301117 414.433929,251.430878 411.493164,247.613907 
	C406.644806,241.320877 402.434082,234.286026 399.370667,226.970840 
	C397.767456,223.142532 399.196289,218.052139 399.221832,213.531540 
	C399.241028,210.136322 399.522217,206.704178 399.133820,203.352554 
	C398.123047,194.630905 401.491425,187.183853 405.647186,180.003845 
	C407.077942,177.531891 409.512085,175.660751 411.138916,173.276993 
	C413.026611,170.510986 414.500061,167.465027 416.207397,164.572540 
	C419.750397,158.570007 423.329102,152.588547 427.159515,146.150665 
	C432.727112,151.091248 437.231567,147.691452 441.911926,146.599625 
	C447.777832,145.231232 453.690247,144.000748 459.639313,143.075302 
	C462.765442,142.588989 466.950500,141.668579 468.917267,143.191498 
	C470.582947,144.481262 469.632019,149.020004 470.081848,152.085342 
	C470.227448,153.077698 470.915375,154.371078 471.740570,154.822739 
	C478.204712,158.360611 484.762573,161.727188 491.412537,165.209976 
	C492.067230,164.211731 492.633270,163.593018 492.925049,162.864471 
	C495.009674,157.659744 498.058838,156.430496 503.397705,159.217728 
	C508.948273,162.115417 514.437683,164.389481 520.827148,162.080215 
	C521.838135,161.714813 523.202271,162.397736 524.272827,162.110443 
	C526.422791,161.533478 529.671936,161.183167 530.353333,159.740662 
	C532.268799,155.685928 533.111572,151.124481 534.598694,145.999908 
	C529.104797,145.999908 524.481628,146.035721 519.859253,145.990829 
	C514.087952,145.934814 510.685333,142.837509 509.959564,137.257385 
	C509.750427,135.649078 509.636566,133.493652 508.609924,132.662415 
	C507.339569,131.633881 505.164062,131.723312 503.379608,131.329758 
	C503.125214,132.614059 502.542297,133.938751 502.694061,135.173126 
	C502.916870,136.985596 503.664795,138.733505 504.400146,141.224091 
	C497.530853,138.995193 491.681549,137.631104 491.655975,129.252594 
	C491.649200,127.025230 488.219666,124.615334 486.047607,122.633369 
	C482.894623,119.756317 479.456390,117.191841 475.408417,115.256607 
	C478.236664,122.169907 484.516144,126.094795 488.354309,130.972366 
	C487.428741,132.986511 486.365051,134.488541 486.046326,136.134796 
	C484.635193,143.423828 479.830811,144.922562 472.910126,139.739594 
	C476.311523,138.985077 479.490387,138.279907 484.012421,137.276794 
	C481.189728,134.131836 479.328491,131.924088 477.323425,129.855759 
	C474.365112,126.804169 471.319061,123.836754 468.271301,120.873672 
	C467.818573,120.433479 467.164062,120.189789 466.582825,119.894753 
	C464.153168,118.661530 452.356323,122.746040 450.866455,125.044830 
	C449.712128,126.825882 447.963196,128.209595 446.642670,129.898270 
	C445.340759,131.563080 443.739868,133.234070 443.145081,135.171021 
	C440.315216,144.386383 433.549255,147.803329 424.604218,144.266907 
	C422.937653,143.608017 421.217163,143.085526 419.004242,142.321472 
	C419.004242,136.329391 418.765808,130.013428 419.085144,123.725792 
	C419.310974,119.279861 423.208008,119.342026 426.394440,119.096359 
	C427.631989,119.000946 429.010712,120.115089 430.181396,119.899139 
	C432.903046,119.397087 436.499573,121.938713 438.139282,117.208298 
	C439.708496,112.681435 437.310364,110.025772 434.632751,107.333305 
	C433.390961,106.084602 431.808167,105.175003 430.866547,104.473946 
	C438.119659,99.841034 445.255280,95.283188 453.388092,90.088371 
	C450.850433,89.128769 450.095093,88.843140 449.192352,88.501785 
	C450.371887,87.206291 451.484314,85.984482 452.596771,84.762665 
	C452.293823,84.676071 451.990875,84.589470 451.687897,84.502876 
	C451.942719,82.710793 451.536865,80.115494 452.568054,79.267326 
	C456.768158,75.812653 453.963165,73.254906 451.979309,70.526390 
	C450.093414,67.932625 448.085297,65.427757 446.130920,62.883804 
	C448.695801,61.156258 451.225922,59.374054 453.834503,57.715157 
	C457.017242,55.691093 460.550568,54.113777 463.423706,51.730209 
	C468.580414,47.452232 473.769043,43.078201 478.172638,38.066307 
	C482.224854,33.454311 486.519653,29.958881 492.607941,28.640518 
	C495.781586,27.953283 498.758484,26.392084 501.917572,25.595749 
	C507.981201,24.067234 513.619507,23.339560 519.951111,26.608625 
	C526.361145,29.918173 533.979797,30.862265 541.031067,32.969673 
	C543.058472,33.575596 545.118896,34.371536 546.872253,35.524265 
	C549.540649,37.278496 549.645203,39.121147 545.695557,40.687378 
	C540.499390,41.249428 535.888367,41.460854 531.287476,41.671814 
	C532.181274,47.477333 533.000061,47.932652 537.714966,45.272011 
	C538.233765,44.979282 539.156250,44.831097 539.616760,45.095078 
	C543.837219,47.514610 544.961304,44.083130 546.563354,41.523911 
	C549.236938,40.837200 551.910583,40.150486 555.007446,39.355057 
	C554.831482,37.522308 554.648743,35.619560 554.436584,33.409706 
	C557.149109,32.880291 560.139587,31.744600 560.378540,38.076042 
	C566.053894,36.026371 571.100098,34.022610 576.275574,32.442242 
	C577.886169,31.950426 579.855469,32.785561 581.645752,32.700848 
	C587.020264,32.446522 592.771362,35.147480 597.600037,30.153313 
	C598.785767,28.926928 601.640564,28.591379 603.539307,28.923939 
	C607.830017,29.675444 612.002930,31.099512 616.709351,31.957542 
	C610.532532,28.873447 613.659363,25.177235 615.698242,21.945265 
	C617.982788,18.324072 623.683533,16.600613 626.511353,18.382183 
	C627.218567,18.827740 627.786987,19.903894 627.927979,20.770193 
	C628.742554,25.774179 629.409790,30.802153 630.261780,36.765629 
	C631.991638,35.265026 633.260315,34.164459 635.104919,32.564331 
	C628.741882,31.792358 631.795837,26.624939 630.339417,23.586742 
	C629.950439,22.775385 633.050659,20.291454 634.906799,18.165642 
	C635.867126,20.254276 636.384705,21.379978 636.424927,21.467417 
	C641.456909,20.776690 645.919556,20.164118 650.585510,19.523636 
	C650.259949,18.644880 649.687439,17.099419 649.263916,15.956177 
	C665.328857,12.293036 681.157776,8.751328 696.944092,5.029361 
	C700.260437,4.247478 703.420410,2.802893 706.826233,1.331838 
	C708.066711,1.000000 709.133362,1.000000 710.770142,1.331575 
	C718.917236,3.465994 726.494202,5.268839 735.553833,7.424459 
	C732.026855,10.209064 729.890076,11.896092 726.626160,14.472968 
	C736.138855,15.377047 744.663208,16.480730 753.220764,16.891869 
	C758.466614,17.143902 763.760681,16.214170 769.039490,16.089766 
	C770.293884,16.060204 772.585327,16.993580 772.683716,17.717316 
	C773.528992,23.934868 777.192139,23.546877 781.752991,22.246353 
	C783.189514,21.836729 784.973145,22.841581 786.552490,22.698389 
	C790.829529,22.310638 795.134521,21.899908 799.323975,21.007721 
	C801.658813,20.510496 803.753174,18.265509 806.012878,18.171108 
	C809.907532,18.008400 813.886108,18.695805 817.758911,19.409208 
	C825.451355,20.826208 833.198486,22.132591 840.721130,24.214289 
	C845.132263,25.434950 850.826660,23.191675 853.936340,28.793482 
	C854.464844,29.745611 856.980286,29.943865 858.562073,29.901714 
	C865.333069,29.721277 872.096069,29.133751 878.866089,29.058632 
	C884.356934,28.997705 890.077515,28.560553 895.301636,29.867472 
	C906.668030,32.710987 917.782532,36.561241 929.000000,40.000000 
	C929.000000,40.444447 929.000000,40.888889 929.000000,41.666660 
	C928.228210,42.607315 927.397766,43.153755 926.694031,43.831707 
	C921.504089,48.831089 919.614258,49.473419 913.164368,45.916897 
	C907.865540,42.995052 903.753174,43.132294 899.927856,48.379890 
	C900.516968,49.497681 901.182495,50.760483 902.282288,52.847317 
	C898.083069,54.600212 893.991394,56.416237 889.819336,58.023735 
	C883.994019,60.268238 878.583740,63.169308 871.658142,62.372139 
	C868.120728,61.964970 864.098022,65.352036 860.394165,67.221169 
	C859.765930,67.538177 859.146851,69.011787 859.361389,69.683403 
	C861.416077,76.114914 857.902954,80.637779 853.820374,84.475159 
	C850.348450,87.738457 846.031982,90.103180 842.896545,92.299736 
	C837.806396,80.792694 840.620544,73.532036 851.283447,65.901787 
	C854.680481,63.470909 857.939514,60.847210 861.261719,58.311749 
	C860.958923,57.874573 860.656067,57.437397 860.353271,57.000221 
	C857.934509,58.570103 855.515747,60.139980 853.133362,61.686241 
	C851.778992,60.221642 850.288574,57.345570 848.881714,57.385838 
	C846.787292,57.445789 844.284058,59.159111 842.782593,60.887882 
	C838.905029,65.352432 834.623718,66.711296 828.574890,66.228836 
	C819.129395,65.475449 809.246948,64.663948 800.944702,71.058067 
	C797.561035,73.664093 794.499207,76.687988 791.047485,79.736710 
	C792.466736,82.392914 794.057251,83.884964 797.768066,83.351547 
	C799.901855,83.044823 802.359680,84.992004 805.214172,86.143433 
	C805.596008,85.832466 806.712952,84.922791 808.306152,83.625313 
	C809.600403,88.532074 810.836304,93.009254 811.925903,97.521751 
	C812.146973,98.437080 812.031433,99.565353 811.700928,100.458511 
	C810.500793,103.701973 809.143616,106.887283 807.416992,111.153748 
	C806.690491,110.219444 805.178833,109.170464 805.118652,108.043884 
	C804.852356,103.063026 805.003479,98.059837 805.003479,92.316559 
	C804.129456,93.459312 803.212463,94.102386 803.229309,94.720032 
	C803.465149,103.376297 797.391357,108.656303 792.788147,114.778267 
	C789.606140,119.010086 786.649292,122.508842 780.607239,123.527977 
	C774.340698,124.584976 770.768005,133.998840 772.590088,140.306488 
	C773.216553,142.475174 773.252441,144.982666 772.863647,147.214386 
	C772.624451,148.587540 771.070740,149.731659 770.107239,150.978607 
	C768.756714,149.897842 766.911316,149.078217 766.171143,147.675385 
	C765.050476,145.551392 764.781921,142.993820 764.005127,140.669312 
	C761.797913,134.064270 761.304871,133.832031 754.376892,135.839737 
	C754.154053,134.389328 753.936218,132.971725 753.585083,130.686035 
	C750.776184,133.135239 748.343811,135.256180 744.483826,138.621902 
	C748.552368,139.938187 751.371765,140.850357 754.871399,141.982574 
	C756.228394,146.245926 750.652100,147.150742 749.455933,150.685516 
	C752.714661,155.368408 753.456299,160.475632 753.716919,166.703445 
	C754.088196,175.578491 747.796143,180.501617 745.532471,187.554977 
	C744.892090,189.550079 742.191772,191.196594 740.077637,192.339981 
	C735.894226,194.602539 731.490540,196.472427 727.110596,198.347198 
	C725.956299,198.841293 724.379517,199.242096 723.302673,198.848587 
	C720.552551,197.843597 718.096313,197.338043 716.369751,200.308121 
	C714.717651,203.150208 713.417236,205.734238 715.548767,209.375443 
	C718.317505,214.105240 720.379700,219.326660 722.151367,224.538605 
	C723.700989,229.097122 722.352600,233.082214 718.147095,236.031937 
	C716.336792,237.301712 715.018860,239.273514 712.888245,241.557922 
	C708.428406,236.365219 704.106079,231.332504 699.787781,226.304550 
	C695.549805,233.455048 697.159668,239.498108 701.849854,245.444107 
	C706.188293,250.943970 710.135925,257.369324 708.692139,264.378265 
	C707.472595,270.298462 709.676453,274.254791 711.788635,279.075775 
	C713.494995,282.970612 713.344116,287.679138 713.876343,292.618164 
	C713.735474,293.209656 713.417114,293.521484 713.417114,293.521484 
M628.755249,38.293758 
	C628.441345,38.187649 628.127441,38.081543 627.813538,37.975426 
	C627.750732,38.186462 627.687866,38.397499 627.625061,38.608536 
	C627.881226,38.669098 628.137451,38.729664 628.755249,38.293758 
z"/>
<path fill="#FFFFFF" opacity="1.000000" stroke="none" 
	d="
M251.000000,464.000000 
	C167.720764,464.000000 84.441528,464.000000 1.000000,464.000000 
	C1.000000,324.644684 1.000000,185.289337 1.367212,45.603554 
	C6.313851,46.263031 10.893279,47.252922 16.635792,48.494228 
	C14.428345,49.676132 12.711258,50.083939 11.836157,51.170113 
	C9.992124,53.458912 7.576991,56.023899 7.372997,58.630264 
	C7.244133,60.276718 10.423326,62.665813 12.587179,63.901436 
	C16.407310,66.082840 20.585222,67.637680 25.069986,69.660782 
	C19.364016,73.763000 14.234024,77.451134 9.104033,81.139259 
	C9.499277,81.747169 9.894521,82.355072 10.289764,82.962982 
	C21.406305,76.352264 34.435863,72.899239 42.414589,60.931355 
	C43.025032,62.971241 43.429424,64.322578 43.851063,65.731537 
	C46.930210,64.379852 49.755791,61.944855 52.189095,62.288391 
	C60.515575,63.463943 68.990181,64.834991 76.830788,67.707680 
	C81.058289,69.256569 84.010513,74.130104 87.715004,77.296707 
	C94.366219,82.982155 101.389450,88.267464 104.556671,96.974564 
	C105.268196,98.930649 106.438118,100.989258 107.983749,102.318321 
	C111.533890,105.371033 112.347336,109.109604 112.032455,113.469193 
	C111.852997,115.953880 112.170502,118.475807 111.971817,120.957550 
	C110.842278,135.066559 117.473305,145.778580 126.231178,156.011414 
	C130.509125,161.009827 134.226288,167.030106 136.304688,173.223038 
	C138.571548,179.977509 142.682327,184.799362 147.557053,189.747101 
	C148.039383,190.125824 148.386261,190.274063 148.733139,190.422302 
	C148.516479,189.924973 148.299835,189.427658 148.033112,188.559555 
	C144.488632,180.124588 140.994202,172.060410 137.499786,163.996216 
	C137.989304,163.763489 138.478821,163.530746 138.968338,163.298004 
	C143.808945,170.859604 148.831665,178.312988 153.415558,186.027115 
	C155.813324,190.062225 157.928253,194.409866 159.263382,198.886993 
	C160.366943,202.587509 161.905792,205.194870 165.398270,207.008896 
	C171.293976,210.071167 176.678146,215.298752 182.834808,216.349350 
	C189.112366,217.420578 193.680237,220.425873 198.674927,223.340347 
	C200.653397,224.494797 202.656830,225.693100 204.368134,227.192017 
	C205.798355,228.444748 207.336075,229.985626 207.933289,231.708435 
	C210.735336,239.791794 217.747787,243.035828 224.110153,247.157425 
	C225.490143,245.246964 226.532043,243.804535 227.687973,242.204254 
	C231.871002,247.961456 234.539856,254.459595 230.473557,260.594208 
	C224.771530,269.196503 223.470566,278.709625 223.309860,288.280518 
	C223.225082,293.330872 226.432022,298.404999 227.980133,303.520599 
	C231.584808,315.432098 237.884079,325.615997 246.698883,334.418457 
	C248.417435,336.134613 249.648163,339.313049 249.518768,341.732239 
	C249.036819,350.742554 248.020767,359.732422 246.965073,368.701691 
	C245.873367,377.977112 244.506485,387.220215 243.252579,396.476440 
	C242.174362,404.435822 241.001389,412.384399 240.107803,420.364349 
	C239.995361,421.368439 241.329468,422.534485 241.993332,423.625458 
	C242.434967,423.511963 242.876602,423.398468 243.318237,423.284973 
	C242.927368,425.016296 243.019455,427.105896 242.052292,428.409729 
	C239.464905,431.897705 239.226501,435.671204 238.712082,439.827179 
	C237.332565,450.972412 240.973236,459.004456 251.000000,464.000000 
z"/>
<path fill="#A0B865" opacity="1.000000" stroke="none" 
	d="
M147.421616,189.516602 
	C142.682327,184.799362 138.571548,179.977509 136.304688,173.223038 
	C134.226288,167.030106 130.509125,161.009827 126.231178,156.011414 
	C117.473305,145.778580 110.842278,135.066559 111.971817,120.957550 
	C112.170502,118.475807 111.852997,115.953880 112.032455,113.469193 
	C112.347336,109.109604 111.533890,105.371033 107.983749,102.318321 
	C106.438118,100.989258 105.268196,98.930649 104.556671,96.974564 
	C101.389450,88.267464 94.366219,82.982155 87.715004,77.296707 
	C84.010513,74.130104 81.058289,69.256569 76.830788,67.707680 
	C68.990181,64.834991 60.515575,63.463943 52.189095,62.288391 
	C49.755791,61.944855 46.930210,64.379852 43.851063,65.731537 
	C43.429424,64.322578 43.025032,62.971241 42.414589,60.931355 
	C34.435863,72.899239 21.406305,76.352264 10.289764,82.962982 
	C9.894521,82.355072 9.499277,81.747169 9.104033,81.139259 
	C14.234024,77.451134 19.364016,73.763000 25.069986,69.660782 
	C20.585222,67.637680 16.407310,66.082840 12.587179,63.901436 
	C10.423326,62.665813 7.244133,60.276718 7.372997,58.630264 
	C7.576991,56.023899 9.992124,53.458912 11.836157,51.170113 
	C12.711258,50.083939 14.428345,49.676132 16.635792,48.494228 
	C10.893279,47.252922 6.313851,46.263031 1.367212,45.136570 
	C1.000000,44.555553 1.000000,44.111111 1.000000,43.333336 
	C4.392283,41.832607 7.784565,40.665211 11.298098,39.456089 
	C9.347692,37.880833 7.238167,36.177063 3.983563,33.548462 
	C8.698467,31.551809 12.609648,29.359896 16.806564,28.220276 
	C28.628916,25.010075 40.550961,25.421232 52.568092,27.660919 
	C59.500938,28.953028 66.758034,28.621489 73.623100,30.136147 
	C86.521965,32.982059 98.713608,26.532463 111.401726,28.016487 
	C117.592827,28.740608 124.303024,28.396793 129.801514,30.785105 
	C136.108276,33.524509 142.248215,35.349998 148.987793,35.444698 
	C150.255188,35.462513 152.273941,35.188889 152.677261,34.400616 
	C154.516510,30.805811 157.297546,31.990326 159.996414,32.493942 
	C164.333054,33.303173 168.640167,34.296028 172.998444,34.955673 
	C176.251114,35.447979 178.855042,34.676769 178.021683,30.575813 
	C188.007111,29.137819 182.828186,19.857843 187.165482,15.197298 
	C189.550262,15.197298 192.511536,15.197298 196.794785,15.197298 
	C194.438538,17.398003 192.800690,18.927740 190.981262,20.627064 
	C194.529037,27.799929 200.230789,31.794868 208.871094,33.096645 
	C205.930283,28.668610 203.332764,24.757475 200.837479,21.000277 
	C205.411896,15.431836 211.549652,16.797119 216.951111,16.088551 
	C226.174347,14.878635 235.057709,16.491100 243.228241,21.089828 
	C249.306519,24.510929 256.267883,26.458961 260.613342,32.787395 
	C261.970428,34.763813 265.539734,35.130527 267.935028,36.513519 
	C269.843842,37.615601 273.192871,38.119175 271.064697,41.783340 
	C269.365540,44.708843 267.611694,47.099224 263.831970,44.425983 
	C262.173889,43.253281 260.320251,42.357086 258.032318,41.900333 
	C260.301849,44.769985 262.571411,47.639641 265.175781,50.932659 
	C263.215027,51.596416 261.723419,52.101368 260.242859,52.602577 
	C260.484680,53.854000 260.723846,55.091610 260.976288,56.397987 
	C251.040894,52.977825 241.334503,49.636501 231.185196,46.142700 
	C233.795212,42.103817 243.048981,44.977261 243.363739,37.059635 
	C237.394043,30.558315 228.403595,27.842054 221.589127,30.584919 
	C222.936752,39.524567 222.621872,39.954746 214.179535,41.024284 
	C213.395355,41.123634 212.473251,41.264122 211.901108,41.733795 
	C205.662811,46.854649 199.297592,51.843098 193.337448,57.274216 
	C187.581284,62.519444 189.361847,69.265320 196.897598,72.052650 
	C202.275848,74.041962 207.566940,76.338631 213.065125,77.909401 
	C217.498627,79.176003 219.890900,81.900406 221.522324,85.930573 
	C222.535248,88.432854 224.069641,90.724037 226.032120,94.324898 
	C227.217270,89.719284 227.962387,86.484573 228.900818,83.306961 
	C229.443085,81.470848 229.937485,79.440376 231.084595,78.000084 
	C233.591263,74.852753 233.125793,72.768005 231.220886,69.049751 
	C229.502869,65.696342 230.279312,60.210526 231.831024,56.436138 
	C232.497986,54.813843 237.965927,54.443623 241.142426,54.729511 
	C247.193237,55.274078 252.115570,57.840893 253.458740,64.719627 
	C253.706299,65.987473 255.326797,66.987251 256.685577,68.534264 
	C259.677338,66.043190 262.380005,63.792824 265.371338,61.302101 
	C265.756195,61.895767 266.587860,62.720051 266.881958,63.704857 
	C269.282898,71.744568 276.201935,75.780396 281.808929,81.052063 
	C284.295990,83.390411 287.815796,86.899689 287.449707,89.371353 
	C287.076324,91.892593 282.817200,94.789772 279.711609,95.748566 
	C273.983368,97.517059 267.849609,97.960411 261.897156,99.024872 
	C260.790192,99.222832 259.741150,99.744812 256.983459,100.699547 
	C263.599121,101.295448 265.959259,104.593391 267.244263,109.200043 
	C267.440094,109.902084 269.857697,110.338455 271.212616,110.263496 
	C272.567230,110.188545 273.877808,109.317947 275.289673,108.763969 
	C276.563385,115.146034 276.563385,115.146034 263.592621,118.849304 
	C263.215027,117.994667 262.828796,117.120422 262.433990,116.226822 
	C257.121521,117.037209 253.450272,119.926353 251.029831,124.660614 
	C250.389084,125.913849 249.165161,126.876770 248.176666,127.942993 
	C244.173874,132.260437 240.121613,136.533249 236.200119,140.923035 
	C235.769669,141.404892 235.809052,142.621597 236.061005,143.348206 
	C238.120346,149.286774 234.439255,152.849792 230.427933,155.720001 
	C224.979370,159.618591 221.549149,163.797607 223.894867,171.000137 
	C224.844589,173.916290 224.914291,177.157822 225.091537,180.267960 
	C225.163528,181.531189 224.455460,182.838882 224.102356,184.126358 
	C223.616135,184.068298 223.129898,184.010254 222.643677,183.952194 
	C221.383011,180.827332 220.168808,177.682709 218.851608,174.581848 
	C216.416000,168.848038 211.410645,166.124512 205.079514,167.013123 
	C204.589355,167.081909 203.754669,167.027420 203.662537,167.260468 
	C201.204559,173.477844 196.272278,170.255249 192.486954,169.863693 
	C186.783768,169.273743 181.926407,175.216858 181.984589,179.966446 
	C182.053986,185.631287 181.933197,191.298721 182.023727,196.962967 
	C182.087677,200.964828 186.039810,206.084305 189.823776,206.826309 
	C194.240524,207.692398 197.162384,205.434494 198.769836,201.497803 
	C200.333664,197.667984 203.200729,197.644363 207.510880,198.460541 
	C206.591095,204.314407 205.693069,210.029861 204.794312,215.750046 
	C205.063126,215.812897 205.382126,215.942505 205.705704,215.955170 
	C218.413483,216.452515 218.373184,216.446854 217.041809,228.968094 
	C216.633728,232.806061 217.389938,236.171539 221.350784,238.128403 
	C226.734711,240.788376 232.590912,240.793594 235.637177,237.849167 
	C237.912903,235.649536 240.054504,233.307068 242.389771,231.174911 
	C243.485138,230.174850 244.896393,229.520767 246.717377,228.356354 
	C246.901108,231.262436 247.025635,233.232162 247.166412,235.458755 
	C249.986526,232.065384 253.025940,232.267563 256.756134,233.773987 
	C259.430481,234.853989 262.712952,235.303635 265.560150,234.894241 
	C271.154816,234.089828 273.953979,237.814316 276.474487,241.274704 
	C279.742249,245.760956 283.705994,248.731979 288.878510,250.461502 
	C298.610657,253.715561 303.082397,261.177063 301.753906,270.804108 
	C308.021118,274.139526 313.746582,278.739288 320.184692,280.201782 
	C327.476288,281.858185 332.993561,285.846069 338.881683,289.556091 
	C342.753235,291.995453 343.708496,301.070679 340.330750,304.995697 
	C332.197998,314.446136 329.772186,325.927704 328.032440,337.687561 
	C326.938446,345.082520 324.070831,351.747711 317.118591,354.733765 
	C310.656189,357.509399 308.628540,362.752930 305.932617,368.237396 
	C302.120361,375.992920 297.737122,383.477539 293.337952,390.924316 
	C292.676788,392.043518 290.648376,392.460205 289.171387,392.964264 
	C287.525330,393.526001 285.786652,393.816284 284.081451,394.226349 
	C286.200378,402.080505 284.288513,405.531860 277.032715,407.463989 
	C274.498413,408.138824 272.146362,408.371185 271.338501,411.844055 
	C270.946198,413.530396 268.232758,414.676758 266.107544,416.454529 
	C266.457550,422.526398 264.810181,428.454376 258.416229,432.105774 
	C262.823456,436.146271 262.996704,437.872375 259.591064,442.946533 
	C258.860107,444.035583 258.131287,445.131287 257.322754,446.162170 
	C253.517136,451.014465 254.077606,454.714050 259.078308,458.666107 
	C260.831116,460.051392 262.347290,461.736115 263.985779,463.642029 
	C259.975464,464.000000 255.950912,464.000000 251.463181,464.000000 
	C240.973236,459.004456 237.332565,450.972412 238.712082,439.827179 
	C239.226501,435.671204 239.464905,431.897705 242.052292,428.409729 
	C243.019455,427.105896 242.927368,425.016296 243.318237,423.284973 
	C242.876602,423.398468 242.434967,423.511963 241.993332,423.625458 
	C241.329468,422.534485 239.995361,421.368439 240.107803,420.364349 
	C241.001389,412.384399 242.174362,404.435822 243.252579,396.476440 
	C244.506485,387.220215 245.873367,377.977112 246.965073,368.701691 
	C248.020767,359.732422 249.036819,350.742554 249.518768,341.732239 
	C249.648163,339.313049 248.417435,336.134613 246.698883,334.418457 
	C237.884079,325.615997 231.584808,315.432098 227.980133,303.520599 
	C226.432022,298.404999 223.225082,293.330872 223.309860,288.280518 
	C223.470566,278.709625 224.771530,269.196503 230.473557,260.594208 
	C234.539856,254.459595 231.871002,247.961456 227.687973,242.204254 
	C226.532043,243.804535 225.490143,245.246964 224.110153,247.157425 
	C217.747787,243.035828 210.735336,239.791794 207.933289,231.708435 
	C207.336075,229.985626 205.798355,228.444748 204.368134,227.192017 
	C202.656830,225.693100 200.653397,224.494797 198.674927,223.340347 
	C193.680237,220.425873 189.112366,217.420578 182.834808,216.349350 
	C176.678146,215.298752 171.293976,210.071167 165.398270,207.008896 
	C161.905792,205.194870 160.366943,202.587509 159.263382,198.886993 
	C157.928253,194.409866 155.813324,190.062225 153.415558,186.027115 
	C148.831665,178.312988 143.808945,170.859604 138.968338,163.298004 
	C138.478821,163.530746 137.989304,163.763489 137.499786,163.996216 
	C140.994202,172.060410 144.488632,180.124588 147.860504,188.697968 
	C147.737946,189.207169 147.421616,189.516602 147.421616,189.516602 
z"/>
<path fill="#FFFFFF" opacity="1.000000" stroke="none" 
	d="
M929.000000,39.531342 
	C917.782532,36.561241 906.668030,32.710987 895.301636,29.867472 
	C890.077515,28.560553 884.356934,28.997705 878.866089,29.058632 
	C872.096069,29.133751 865.333069,29.721277 858.562073,29.901714 
	C856.980286,29.943865 854.464844,29.745611 853.936340,28.793482 
	C850.826660,23.191675 845.132263,25.434950 840.721130,24.214289 
	C833.198486,22.132591 825.451355,20.826208 817.758911,19.409208 
	C813.886108,18.695805 809.907532,18.008400 806.012878,18.171108 
	C803.753174,18.265509 801.658813,20.510496 799.323975,21.007721 
	C795.134521,21.899908 790.829529,22.310638 786.552490,22.698389 
	C784.973145,22.841581 783.189514,21.836729 781.752991,22.246353 
	C777.192139,23.546877 773.528992,23.934868 772.683716,17.717316 
	C772.585327,16.993580 770.293884,16.060204 769.039490,16.089766 
	C763.760681,16.214170 758.466614,17.143902 753.220764,16.891869 
	C744.663208,16.480730 736.138855,15.377047 726.626160,14.472968 
	C729.890076,11.896092 732.026855,10.209064 735.553833,7.424459 
	C726.494202,5.268839 718.917236,3.465994 711.170166,1.331575 
	C783.542786,1.000000 856.085571,1.000000 929.000000,1.000000 
	C929.000000,13.685142 929.000000,26.373913 929.000000,39.531342 
z"/>
<path fill="#A0B865" opacity="1.000000" stroke="none" 
	d="
M824.241211,343.733826 
	C827.952148,349.915344 831.996887,355.580444 834.693909,361.827393 
	C837.220825,367.680267 836.613281,373.987274 834.043152,380.079834 
	C831.053772,387.166351 828.654785,394.503479 825.613098,401.565369 
	C824.909546,403.198853 822.737610,405.074799 821.068848,405.256683 
	C815.670837,405.845001 810.181824,405.924988 804.752502,405.672791 
	C803.387451,405.609375 801.747681,403.800812 800.868469,402.396973 
	C798.392578,398.443970 796.246704,394.284241 793.748169,389.807129 
	C792.397766,391.515045 791.431702,392.736969 789.936218,394.628357 
	C788.557434,392.380890 787.353027,390.563446 786.294678,388.664673 
	C783.392456,383.457764 780.016663,381.921051 774.467468,383.870392 
	C765.509949,387.017029 756.582153,390.262360 747.735840,393.707397 
	C739.988098,396.724640 736.726501,395.130463 736.065979,387.030334 
	C735.181152,376.179352 734.712463,365.295044 733.980835,354.430664 
	C733.661194,349.683258 735.802490,346.533997 739.932068,344.554108 
	C741.852722,343.633270 743.809082,342.781097 745.779358,341.970978 
	C749.564148,340.414856 752.554077,338.603027 754.598999,334.371674 
	C756.820862,329.774231 760.919128,326.020508 764.513489,322.194092 
	C765.407410,321.242432 767.854187,320.692657 768.999146,321.224426 
	C773.032532,323.097778 774.667236,321.292023 776.104858,317.846039 
	C777.877502,313.597412 781.409058,312.446930 785.812195,312.978668 
	C791.570862,313.674164 792.645203,314.963867 791.693665,320.687531 
	C790.862366,325.688416 797.349670,331.535309 802.000732,329.790131 
	C802.908569,329.449432 803.729309,327.905457 803.923218,326.799561 
	C804.825562,321.653809 805.493530,316.466949 806.417725,310.109283 
	C812.624146,321.894684 818.305481,332.683014 824.241211,343.733826 
z"/>
<path fill="#A0B865" opacity="1.000000" stroke="none" 
	d="
M798.218689,277.654602 
	C803.822754,280.830048 809.209717,283.623596 814.347229,286.818268 
	C816.177185,287.956177 817.781067,289.863556 818.811951,291.782837 
	C820.260925,294.480591 820.758728,297.697876 822.258606,300.357269 
	C823.733948,302.973206 825.952576,305.169983 828.699646,308.625641 
	C820.463318,308.436157 816.642212,301.947815 810.569031,299.991638 
	C809.750000,301.732178 809.004211,303.316956 808.095215,305.248505 
	C804.690247,303.980225 801.261963,302.909973 798.050720,301.383392 
	C797.064819,300.914703 795.914368,299.015717 796.137329,298.081482 
	C797.229675,293.504669 794.441711,291.573822 791.214233,289.604706 
	C787.334351,287.237488 781.069824,287.240967 781.587646,280.267517 
	C781.611145,279.951508 780.978821,279.475677 780.557129,279.256958 
	C778.704651,278.296051 776.473999,276.892578 779.186646,275.216644 
	C780.743835,274.254639 783.574158,275.123962 785.754639,275.555725 
	C786.325989,275.668854 786.651672,277.209320 787.020752,278.122375 
	C788.245239,281.152344 789.643433,281.875946 792.396301,279.311462 
	C793.691772,278.104736 796.034851,278.022644 798.218689,277.654602 
z"/>
<path fill="#A0B865" opacity="1.000000" stroke="none" 
	d="
M730.274048,260.385498 
	C734.113098,256.053650 737.760315,252.028152 741.596252,247.794357 
	C745.108154,250.341888 748.903015,252.301544 745.095459,257.377045 
	C744.294556,258.444641 743.644653,260.548248 744.157104,261.533966 
	C748.707520,270.285858 741.167969,276.619263 739.851562,284.155334 
	C739.755127,284.707031 739.156799,285.317596 738.630554,285.622345 
	C736.331787,286.953430 724.838989,282.348572 723.897766,279.768463 
	C723.058228,277.467163 722.147278,275.186615 721.430908,272.846954 
	C720.312744,269.195038 721.290527,266.627686 725.060364,264.949707 
	C726.984741,264.093140 728.423767,262.146088 730.274048,260.385498 
z"/>
<path fill="#A0B865" opacity="1.000000" stroke="none" 
	d="
M553.207031,351.371765 
	C552.783447,336.615509 557.555542,324.479248 569.174683,315.651886 
	C574.010254,321.573334 567.367004,353.452179 558.337036,361.693390 
	C556.577942,358.199402 554.959167,354.984253 553.207031,351.371765 
z"/>
<path fill="#A0B865" opacity="1.000000" stroke="none" 
	d="
M805.998535,132.149231 
	C805.238464,136.922287 804.753357,141.340179 803.652283,145.598831 
	C802.034424,151.856277 795.328552,151.731506 791.181763,154.855026 
	C790.441895,155.412323 789.363708,155.669266 788.410583,155.769684 
	C783.262329,156.312134 779.058533,157.979935 778.726562,164.086014 
	C774.789307,162.563797 772.868408,157.897552 775.060242,155.606125 
	C777.420654,153.138290 780.009705,150.476120 783.045715,149.156693 
	C788.703430,146.697845 793.562378,143.253464 797.507568,138.757278 
	C799.381592,136.621628 801.162476,133.069305 800.748962,130.521805 
	C799.680481,123.940331 802.632141,119.265572 806.364990,114.101929 
	C809.569336,115.947678 812.740112,117.774063 816.642090,120.021660 
	C812.308777,121.993500 810.763306,128.075287 804.421936,124.681419 
	C805.039551,127.440842 805.518799,129.581848 805.998535,132.149231 
z"/>
<path fill="#A0B865" opacity="1.000000" stroke="none" 
	d="
M888.367432,401.815186 
	C887.349609,398.832245 886.568909,396.183777 885.484497,392.505127 
	C890.553650,397.171692 894.562988,400.862610 899.557739,405.460602 
	C898.048279,408.055817 895.656006,412.168793 893.037842,416.670258 
	C891.930542,416.124878 890.895508,415.615143 889.698669,415.025696 
	C889.437439,415.567444 889.153870,415.947144 889.066223,416.367676 
	C887.177917,425.430878 879.094910,433.501373 871.285095,434.008575 
	C870.303955,434.072296 869.296997,433.738831 868.302002,433.589417 
	C868.550476,432.551392 868.481201,431.242340 869.098389,430.518890 
	C873.480774,425.381439 877.811462,420.169739 882.600769,415.428314 
	C884.007202,414.035919 886.841614,414.085876 888.604553,413.591675 
	C888.604553,409.895294 888.604553,406.022461 888.367432,401.815186 
z"/>
<path fill="#A0B865" opacity="1.000000" stroke="none" 
	d="
M756.353516,288.060333 
	C754.434143,287.270203 752.781494,286.210571 751.166016,285.174805 
	C751.026550,286.775177 750.853455,288.761566 750.680298,290.747955 
	C750.304199,290.822784 749.928101,290.897614 749.552002,290.972443 
	C749.035889,289.420837 748.245911,287.899750 748.068909,286.310364 
	C747.813049,284.013153 748.000305,281.666504 748.000244,279.340942 
	C747.999878,269.216797 748.005066,269.254669 758.041321,267.949615 
	C759.576660,267.749939 761.042358,267.014709 762.540222,266.527161 
	C762.812439,266.944031 763.084656,267.360901 763.356873,267.777771 
	C761.464050,268.881439 759.629944,270.106598 757.662537,271.055756 
	C755.545471,272.077179 753.303406,272.839783 751.188171,274.645264 
	C753.199341,274.829254 755.210510,275.013275 755.917480,275.077972 
	C756.161377,279.490143 756.390808,283.640503 756.353516,288.060333 
z"/>
<path fill="#A0B865" opacity="1.000000" stroke="none" 
	d="
M439.227142,75.475845 
	C442.102173,70.660004 442.102173,70.660004 449.270142,71.283089 
	C451.132019,79.313438 447.178497,84.017929 437.770782,83.767517 
	C438.205780,81.058784 438.624786,78.449486 439.227142,75.475845 
z"/>
<path fill="#A0B865" opacity="1.000000" stroke="none" 
	d="
M713.906250,293.066589 
	C722.763855,294.025879 731.367188,295.337097 737.555603,303.087036 
	C730.664612,301.694458 723.717529,300.515076 716.929443,298.731049 
	C715.557678,298.370514 714.787231,295.722046 713.578369,293.824951 
	C713.417114,293.521484 713.735474,293.209656 713.906250,293.066589 
z"/>
<path fill="#A0B865" opacity="1.000000" stroke="none" 
	d="
M755.994751,211.336395 
	C755.674133,213.329315 755.254211,214.911209 755.048279,216.520493 
	C754.733765,218.978806 753.621033,221.595139 757.669250,222.574158 
	C758.871094,222.864807 759.480408,225.605835 760.361206,227.224030 
	C760.006836,227.443970 759.652466,227.663910 759.298035,227.883850 
	C757.307739,226.816589 755.227234,225.887070 753.344666,224.655197 
	C748.473267,221.467651 747.226257,212.270630 751.495117,208.414795 
	C754.022644,206.131851 755.517639,208.218063 755.994751,211.336395 
z"/>
<path fill="#A0B865" opacity="1.000000" stroke="none" 
	d="
M216.371460,192.316437 
	C218.112793,191.756821 219.812653,190.733765 220.891525,191.187439 
	C227.336548,193.897614 233.638397,196.948257 240.503967,200.123138 
	C236.843521,202.904938 234.242096,203.317307 231.077408,200.738541 
	C227.026947,197.438004 222.825165,194.009384 216.915039,194.877090 
	C216.742706,194.902405 216.338913,193.351395 216.371460,192.316437 
z"/>
<path fill="#A0B865" opacity="1.000000" stroke="none" 
	d="
M765.397644,238.357025 
	C765.431335,243.044144 767.967041,248.082672 762.873230,252.510742 
	C760.809692,249.991119 758.903076,247.663086 756.451660,244.669937 
	C759.429688,242.420441 762.233643,240.302414 765.397644,238.357025 
z"/>
<path fill="#A0B865" opacity="1.000000" stroke="none" 
	d="
M814.498169,414.036957 
	C817.127686,414.367950 819.348816,414.725067 822.776184,415.276154 
	C821.779480,418.129730 821.633301,421.505615 819.961243,422.647827 
	C817.400940,424.396851 815.125122,422.118103 813.979858,419.451477 
	C813.220337,417.682983 810.187317,415.768707 814.498169,414.036957 
z"/>
<path fill="#A0B865" opacity="1.000000" stroke="none" 
	d="
M250.382950,209.792267 
	C247.929398,209.924789 245.863937,209.924789 243.585571,209.924789 
	C243.834839,206.936234 244.019104,204.726974 244.246918,201.995728 
	C248.054428,203.192184 251.585495,204.301788 256.654449,205.894638 
	C253.794800,207.724686 252.282928,208.692215 250.382950,209.792267 
z"/>
<path fill="#A0B865" opacity="1.000000" stroke="none" 
	d="
M467.047760,129.843185 
	C466.926758,132.497726 466.753082,134.761795 466.579376,137.025879 
	C465.765137,136.974335 464.950928,136.922775 464.136719,136.871231 
	C464.136719,132.483017 464.136719,128.094803 464.136719,123.706581 
	C464.432892,123.616615 464.729065,123.526642 465.025238,123.436676 
	C465.681824,125.442024 466.338440,127.447380 467.047760,129.843185 
z"/>
<path fill="#A0B865" opacity="1.000000" stroke="none" 
	d="
M825.490234,293.760132 
	C824.256592,293.265503 823.363098,292.920135 821.541199,292.215973 
	C825.490173,290.540344 828.784363,289.142548 833.068176,287.324860 
	C831.324524,291.505585 829.916931,294.247803 825.490234,293.760132 
z"/>
<path fill="#A0B865" opacity="1.000000" stroke="none" 
	d="
M750.998718,187.945740 
	C751.695984,186.390900 752.391968,185.254425 753.087891,184.117950 
	C753.397705,185.319901 754.051025,186.553055 753.945251,187.717239 
	C753.728760,190.099503 753.104431,192.444717 752.647949,194.805191 
	C752.097778,194.802795 751.547607,194.800385 750.997437,194.797989 
	C750.997437,192.653351 750.997437,190.508728 750.998718,187.945740 
z"/>
<path fill="#A0B865" opacity="1.000000" stroke="none" 
	d="
M760.022827,305.941101 
	C762.594238,303.503479 765.164917,301.439850 767.735657,299.376190 
	C767.909912,299.631470 768.084229,299.886749 768.258545,300.142029 
	C766.127869,302.612732 764.013672,305.098694 761.798340,307.490967 
	C761.720398,307.575073 760.636902,306.728058 760.022827,305.941101 
z"/>
<path fill="#FFFFFF" opacity="1.000000" stroke="none" 
	d="
M546.410034,41.366623 
	C544.961304,44.083130 543.837219,47.514610 539.616760,45.095078 
	C539.156250,44.831097 538.233765,44.979282 537.714966,45.272011 
	C533.000061,47.932652 532.181274,47.477333 531.287476,41.671814 
	C535.888367,41.460854 540.499390,41.249428 545.516602,40.980896 
	C545.922729,40.923794 546.256653,41.209339 546.410034,41.366623 
z"/>
<path fill="#FFFFFF" opacity="1.000000" stroke="none" 
	d="
M628.574463,38.541992 
	C628.137451,38.729664 627.881226,38.669098 627.625061,38.608536 
	C627.687866,38.397499 627.750732,38.186462 627.813538,37.975430 
	C628.127441,38.081543 628.441345,38.187649 628.574463,38.541992 
z"/>
<path fill="#A0B865" opacity="1.000000" stroke="none" 
	d="
M147.910553,189.068756 
	C148.299835,189.427658 148.516479,189.924973 148.733139,190.422302 
	C148.386261,190.274063 148.039383,190.125824 147.557053,189.747101 
	C147.421616,189.516602 147.737946,189.207169 147.910553,189.068756 
z"/>
</svg>