<svg version="1.1" id="Layer_1" xmlns="http://www.w3.org/2000/svg" xmlns:xlink="http://www.w3.org/1999/xlink" x="0px" y="0px"
	 width="100%" viewBox="0 0 554 528" enable-background="new 0 0 554 528" xml:space="preserve">
<path fill="#A0B865" opacity="1.000000" stroke="none" 
	d="
M555.000000,203.000000 
	C555.000000,203.000000 555.000000,203.500000 554.648315,203.771606 
	C542.100708,215.960220 529.974670,227.949905 517.689758,239.774445 
	C504.570160,252.402252 491.137360,264.708069 478.147949,277.466675 
	C467.720276,287.709015 457.832977,298.499573 447.526398,308.868439 
	C444.530945,311.881989 440.712219,314.066162 437.630249,317.007080 
	C431.182159,323.160126 424.933411,329.524872 418.706024,335.903473 
	C417.699646,336.934296 416.580658,338.509705 416.631348,339.789093 
	C416.757843,342.982147 417.493835,346.155609 418.049774,349.325623 
	C418.485840,351.812103 418.980164,354.290009 419.518341,356.756470 
	C420.121948,359.522797 420.949829,362.247711 421.413666,365.034973 
	C421.951752,368.268463 421.986694,371.592194 422.619720,374.801880 
	C423.857330,381.077454 425.615448,387.258057 426.669861,393.559662 
	C427.517914,398.628021 427.268951,403.885529 428.188965,408.934784 
	C429.360931,415.366913 431.468933,421.625732 432.710938,428.048676 
	C433.871368,434.049713 434.406830,440.170532 435.260437,446.232513 
	C435.546265,448.262695 436.048401,450.263733 436.302643,452.296692 
	C436.675201,455.275879 436.672150,458.320648 437.264008,461.249603 
	C438.235352,466.056396 439.821442,470.746857 440.652893,475.571747 
	C441.455688,480.230408 441.301910,485.058197 442.161652,489.701843 
	C443.427185,496.537262 445.489319,503.227112 446.707703,510.068787 
	C447.820404,516.317139 448.262421,522.684875 449.000000,529.000000 
	C449.000000,529.000000 448.500000,529.000000 448.103455,528.685242 
	C433.210175,520.599915 418.760345,512.740295 404.204590,505.081940 
	C387.158295,496.113251 370.005676,487.346893 352.927551,478.438354 
	C345.051788,474.330109 337.265839,470.049957 329.399933,465.922485 
	C312.785828,457.204559 296.154114,448.520020 279.493835,439.890900 
	C278.607697,439.431946 277.140198,439.147095 276.367493,439.565186 
	C269.182037,443.452881 262.173950,447.671753 254.955170,451.493774 
	C228.918533,465.279114 202.853012,479.010742 176.734680,492.640625 
	C155.301132,503.825684 133.767349,514.818665 112.317146,525.972046 
	C111.033638,526.639465 110.097679,527.975220 109.000000,529.000000 
	C109.000000,529.000000 108.500000,529.000000 108.229126,528.608398 
	C108.032738,525.027161 107.719627,521.772095 108.245346,518.658630 
	C111.382759,500.077911 114.779564,481.541138 117.961090,462.967651 
	C121.116951,444.543884 124.072060,426.085754 127.205940,407.658142 
	C130.420609,388.755524 133.046753,369.712189 137.306442,351.044403 
	C139.548935,341.216858 137.570801,335.379547 129.800308,328.793823 
	C115.890274,317.004669 103.350113,303.592957 90.307396,290.788116 
	C68.472031,269.350952 46.718319,247.830597 24.872486,226.404144 
	C18.005062,219.668579 10.973210,213.099670 3.955038,206.520172 
	C3.177947,205.791656 1.994818,205.496262 0.999999,205.000000 
	C1.000000,204.250000 1.000000,203.500000 1.443285,202.375000 
	C6.141490,201.554230 10.417838,201.254700 14.647287,200.635056 
	C26.984684,198.827530 39.291115,196.807236 51.632507,195.028732 
	C66.425232,192.896942 81.256088,191.028122 96.043488,188.861557 
	C110.813095,186.697571 125.539688,184.241333 140.302948,182.032303 
	C156.369843,179.628204 172.437439,177.203766 188.553253,175.173416 
	C191.601959,174.789337 192.834473,173.510574 193.991409,171.136581 
	C203.663528,151.289581 213.348328,131.448410 223.123917,111.652206 
	C240.419952,76.626602 257.776520,41.630886 275.140320,6.638808 
	C275.812103,5.284989 276.821198,4.098525 278.236847,1.997365 
	C286.481659,18.988632 294.140869,35.017704 302.010345,50.942867 
	C321.946716,91.287437 341.955658,131.596268 362.062195,171.856140 
	C362.758484,173.250381 364.688049,174.588638 366.248047,174.889786 
	C371.562225,175.915649 376.978485,176.398270 382.337433,177.209579 
	C394.826263,179.100296 407.293121,181.138748 419.790100,182.972763 
	C432.301727,184.808929 444.845032,186.428284 457.363617,188.218262 
	C470.521515,190.099640 483.669006,192.054169 496.816528,194.007248 
	C509.314362,195.863831 521.810547,197.732590 534.299255,199.649338 
	C541.208191,200.709702 548.100281,201.879517 555.000000,203.000000 
z"/>
<path fill="#FFFFFF" opacity="1.000000" stroke="none" 
	d="
M555.000000,202.531342 
	C548.100281,201.879517 541.208191,200.709702 534.299255,199.649338 
	C521.810547,197.732590 509.314362,195.863831 496.816528,194.007248 
	C483.669006,192.054169 470.521515,190.099640 457.363617,188.218262 
	C444.845032,186.428284 432.301727,184.808929 419.790100,182.972763 
	C407.293121,181.138748 394.826263,179.100296 382.337433,177.209579 
	C376.978485,176.398270 371.562225,175.915649 366.248047,174.889786 
	C364.688049,174.588638 362.758484,173.250381 362.062195,171.856140 
	C341.955658,131.596268 321.946716,91.287437 302.010345,50.942867 
	C294.140869,35.017704 286.481659,18.988632 278.236847,1.997365 
	C276.821198,4.098525 275.812103,5.284989 275.140320,6.638808 
	C257.776520,41.630886 240.419952,76.626602 223.123917,111.652206 
	C213.348328,131.448410 203.663528,151.289581 193.991409,171.136581 
	C192.834473,173.510574 191.601959,174.789337 188.553253,175.173416 
	C172.437439,177.203766 156.369843,179.628204 140.302948,182.032303 
	C125.539688,184.241333 110.813095,186.697571 96.043488,188.861557 
	C81.256088,191.028122 66.425232,192.896942 51.632507,195.028732 
	C39.291115,196.807236 26.984684,198.827530 14.647287,200.635056 
	C10.417838,201.254700 6.141490,201.554230 1.443285,202.000000 
	C1.000000,135.030624 1.000000,68.061264 1.000000,1.045945 
	C185.551605,1.045945 370.103241,1.045945 555.000000,1.045945 
	C555.000000,68.020500 555.000000,135.041595 555.000000,202.531342 
z"/>
<path fill="#FFFFFF" opacity="1.000000" stroke="none" 
	d="
M0.999999,205.468658 
	C1.994818,205.496262 3.177947,205.791656 3.955038,206.520172 
	C10.973210,213.099670 18.005062,219.668579 24.872486,226.404144 
	C46.718319,247.830597 68.472031,269.350952 90.307396,290.788116 
	C103.350113,303.592957 115.890274,317.004669 129.800308,328.793823 
	C137.570801,335.379547 139.548935,341.216858 137.306442,351.044403 
	C133.046753,369.712189 130.420609,388.755524 127.205940,407.658142 
	C124.072060,426.085754 121.116951,444.543884 117.961090,462.967651 
	C114.779564,481.541138 111.382759,500.077911 108.245346,518.658630 
	C107.719627,521.772095 108.032738,525.027161 107.979126,528.608398 
	C72.369560,529.000000 36.739120,529.000000 1.000000,529.000000 
	C1.000000,421.312469 1.000000,313.624878 0.999999,205.468658 
z"/>
<path fill="#FFFFFF" opacity="1.000000" stroke="none" 
	d="
M449.468658,529.000000 
	C448.262421,522.684875 447.820404,516.317139 446.707703,510.068787 
	C445.489319,503.227112 443.427185,496.537262 442.161652,489.701843 
	C441.301910,485.058197 441.455688,480.230408 440.652893,475.571747 
	C439.821442,470.746857 438.235352,466.056396 437.264008,461.249603 
	C436.672150,458.320648 436.675201,455.275879 436.302643,452.296692 
	C436.048401,450.263733 435.546265,448.262695 435.260437,446.232513 
	C434.406830,440.170532 433.871368,434.049713 432.710938,428.048676 
	C431.468933,421.625732 429.360931,415.366913 428.188965,408.934784 
	C427.268951,403.885529 427.517914,398.628021 426.669861,393.559662 
	C425.615448,387.258057 423.857330,381.077454 422.619720,374.801880 
	C421.986694,371.592194 421.951752,368.268463 421.413666,365.034973 
	C420.949829,362.247711 420.121948,359.522797 419.518341,356.756470 
	C418.980164,354.290009 418.485840,351.812103 418.049774,349.325623 
	C417.493835,346.155609 416.757843,342.982147 416.631348,339.789093 
	C416.580658,338.509705 417.699646,336.934296 418.706024,335.903473 
	C424.933411,329.524872 431.182159,323.160126 437.630249,317.007080 
	C440.712219,314.066162 444.530945,311.881989 447.526398,308.868439 
	C457.832977,298.499573 467.720276,287.709015 478.147949,277.466675 
	C491.137360,264.708069 504.570160,252.402252 517.689758,239.774445 
	C529.974670,227.949905 542.100708,215.960220 554.648315,204.021606 
	C555.000000,312.223297 555.000000,420.446564 555.000000,529.000000 
	C519.979797,529.000000 484.958557,529.000000 449.468658,529.000000 
z"/>
<path fill="#FFFFFF" opacity="1.000000" stroke="none" 
	d="
M109.468658,529.000000 
	C110.097679,527.975220 111.033638,526.639465 112.317146,525.972046 
	C133.767349,514.818665 155.301132,503.825684 176.734680,492.640625 
	C202.853012,479.010742 228.918533,465.279114 254.955170,451.493774 
	C262.173950,447.671753 269.182037,443.452881 276.367493,439.565186 
	C277.140198,439.147095 278.607697,439.431946 279.493835,439.890900 
	C296.154114,448.520020 312.785828,457.204559 329.399933,465.922485 
	C337.265839,470.049957 345.051788,474.330109 352.927551,478.438354 
	C370.005676,487.346893 387.158295,496.113251 404.204590,505.081940 
	C418.760345,512.740295 433.210175,520.599915 447.853455,528.685242 
	C335.312439,529.000000 222.624878,529.000000 109.468658,529.000000 
z"/>
</svg>